<?xml version="1.0" standalone="no"?>
<!DOCTYPE svg PUBLIC "-//W3C//DTD SVG 1.1//EN" "http://www.w3.org/Graphics/SVG/1.1/DTD/svg11.dtd" >
<svg xmlns="http://www.w3.org/2000/svg">
<metadata></metadata>
<defs>
<font id="district-mediumregular" horiz-adv-x="1228" >
<font-face units-per-em="2048" ascent="1659" descent="-389" />
<missing-glyph horiz-adv-x="325" />
<glyph horiz-adv-x="2048" />
<glyph horiz-adv-x="2048" />
<glyph unicode="&#xd;" horiz-adv-x="325" />
<glyph unicode=" "  horiz-adv-x="325" />
<glyph unicode="&#x09;" horiz-adv-x="325" />
<glyph unicode="&#xa0;" horiz-adv-x="325" />
<glyph unicode="!" horiz-adv-x="892" d="M242 1446h407l-61 -989h-281zM264 0v360h365v-360h-365z" />
<glyph unicode="&#x22;" horiz-adv-x="1099" d="M207 1446h293l-43 -590h-207zM598 1446h293l-43 -590h-205z" />
<glyph unicode="#" horiz-adv-x="1216" d="M80 301v219h207l43 264h-201v222h240l47 294h190l-49 -294h213l49 294h189l-50 -294h179v-220h-213l-45 -266h206v-219h-241l-51 -301h-191l51 301h-213l-47 -301h-192l51 301h-172zM477 520h213l43 266h-211z" />
<glyph unicode="$" horiz-adv-x="1110" d="M121 817v207q0 68 10 119t38 87t79 53t131 17h102v236h162v-236h311v-225h-446v-217l313 -127q51 -20 84 -38.5t53.5 -42t28.5 -58.5t8 -88v-209q0 -82 -13 -138.5t-43 -91t-78 -50t-116 -15.5h-102v-236h-162v236h-358v225h485v248l-327 127q-78 29 -119 74t-41 143z " />
<glyph unicode="%" horiz-adv-x="1896" d="M135 662v489q0 66 33 105.5t111 41.5l172 7l165 -7q74 -2 109 -39.5t35 -103.5v-487q0 -59 -33 -102.5t-111 -47.5l-172 -6l-165 6q-78 4 -111 43t-33 101zM369 664h153v489h-153v-489zM694 -78l348 1467h162l-348 -1467h-162zM1137 147v490q0 66 32.5 105.5t110.5 41.5 l172 7l166 -7q74 -2 108.5 -39.5t34.5 -103.5v-487q0 -59 -32.5 -102.5t-110.5 -47.5l-172 -6l-166 6q-78 4 -110.5 43t-32.5 100zM1370 150h154v489h-154v-489z" />
<glyph unicode="&#x26;" horiz-adv-x="1366" d="M76 276v246q0 55 11 104.5t38 86.5t71 58.5t111 21.5h47l-35 43q-92 113 -92 223v108q0 47 11.5 97.5t42 90.5t85 65.5t138.5 25.5h577v-244h-491v-168l346 -426q2 4 4 38t2 61v118h293v-264q0 -72 -21.5 -139.5t-64.5 -118.5l229 -303h-344l-80 117 q-72 -72 -152.5 -94.5t-150.5 -22.5h-297q-86 0 -140 26.5t-85 66.5t-42 89t-11 94zM414 274h252q29 0 65.5 9.5t59.5 31.5l-289 359h-88v-400z" />
<glyph unicode="'" horiz-adv-x="706" d="M207 1446h293l-43 -590h-207z" />
<glyph unicode="(" horiz-adv-x="839" d="M170 741q0 152 37 290t104.5 261t165.5 227.5t221 190.5l90 -74q-80 -84 -148.5 -183t-118.5 -213t-77.5 -238.5t-27.5 -258.5q0 -133 28.5 -259t78.5 -239.5t119 -215t149 -183.5l-93 -73q-248 172 -388 415.5t-140 552.5z" />
<glyph unicode=")" horiz-adv-x="839" d="M49 1636l92 74q248 -176 388.5 -418t140.5 -551q0 -152 -37 -290t-104.5 -260.5t-166 -227t-221.5 -190.5l-90 73q80 82 148.5 183.5t119 215t79 239.5t28.5 259t-28.5 258t-79 239t-120 213t-149.5 183z" />
<glyph unicode="*" horiz-adv-x="995" d="M117 1104l45 166l260 -94l-6 274h178l-10 -279l254 93l55 -162l-277 -64l181 -215l-140 -104l-155 235l-162 -231l-135 102l176 209z" />
<glyph unicode="+" horiz-adv-x="1220" d="M88 381v293h373v385h301v-385h371v-293h-369v-383h-301v383h-375z" />
<glyph unicode="," horiz-adv-x="655" d="M45 -354l166 641h391l-330 -641h-227z" />
<glyph unicode="-" horiz-adv-x="575" d="M39 383v293h500v-293h-500z" />
<glyph unicode="." horiz-adv-x="675" d="M156 0v360h364v-360h-364z" />
<glyph unicode="/" horiz-adv-x="835" d="M53 -92l617 1628h192l-616 -1628h-193z" />
<glyph unicode="0" horiz-adv-x="1173" d="M106 188v658q0 98 46.5 154.5t158.5 60.5l285 6l268 -6q109 -4 156 -56.5t47 -150.5v-643q0 -111 -49 -161t-156 -54l-276 -6l-277 6q-113 4 -158 47t-45 145zM455 178h262v699h-262v-699z" />
<glyph unicode="1" horiz-adv-x="999" d="M47 0v221h324v570l-320 -107v229l430 148h234v-840h266v-221h-934z" />
<glyph unicode="2" horiz-adv-x="1026" d="M29 0v170l518 412q29 23 50 56.5t21 104.5v131h-212v-215h-332v191q0 100 66.5 155.5t164.5 59.5q47 0 88 2q35 2 69 3t50 1q20 0 62 -1t85 -3q51 -2 109 -2q199 -6 199 -205v-121q0 -84 -33 -137t-109 -110l-368 -271h510v-221h-938z" />
<glyph unicode="3" horiz-adv-x="989" d="M25 -18h493v335h-424v209h416v312h-475v223h567q129 0 199.5 -53.5t70.5 -182.5v-186q0 -102 -42 -156.5t-138 -74.5q53 -6 90 -17.5t60.5 -38t35 -69.5t11.5 -111v-174q0 -123 -62.5 -181.5t-199.5 -58.5h-602v224z" />
<glyph unicode="4" horiz-adv-x="1169" d="M55 0v211l383 850h520v-840h183v-221h-183v-242h-354v242h-549zM330 215h309v625h-35z" />
<glyph unicode="5" horiz-adv-x="1054" d="M100 -20h525v339h-334q-100 0 -142.5 30t-42.5 124v16q0 8 3 25l36 547h768v-225h-477l-18 -293h301q68 0 115 -12.5t76.5 -41t42 -76.5t12.5 -120v-260q0 -66 -10.5 -117t-39 -87t-78 -54.5t-126.5 -18.5h-611v224z" />
<glyph unicode="6" horiz-adv-x="1138" d="M106 217v836q0 123 54.5 185t175.5 62h653v-223h-532v-280h364q127 0 176.5 -54.5t49.5 -181.5v-342q0 -102 -49.5 -159.5t-149.5 -59.5q-63 -2 -117 -4q-47 -2 -92 -2h-131q-43 0 -88 2q-53 2 -115 4q-94 2 -146.5 61.5t-52.5 155.5zM455 211h245v379h-245v-379z" />
<glyph unicode="7" horiz-adv-x="1085" d="M45 586v475h971v-201l-342 -878h225v-224h-805v224h221l334 856h-305v-252h-299z" />
<glyph unicode="8" horiz-adv-x="1159" d="M100 213v199q0 125 50.5 177t154.5 62q-92 16 -132 67.5t-40 158.5v210q0 100 56.5 154.5t150.5 58.5q53 0 100 3q41 2 81 3t61 1q20 0 59 -1t80 -3q47 -2 98 -3q94 -4 151.5 -58t57.5 -155v-210q0 -106 -41 -157.5t-133 -68.5q104 -10 155.5 -62t51.5 -177v-199 q0 -100 -63.5 -156.5t-157.5 -58.5q-57 -2 -107 -4q-43 -2 -84 -2h-127q-43 0 -88 2q-53 2 -115 4q-94 2 -156.5 58.5t-62.5 156.5zM442 209h275v360h-275v-360zM457 766h245v317h-245v-317z" />
<glyph unicode="9" horiz-adv-x="1124" d="M78 469v377q0 102 49 157.5t149 57.5q61 0 115 2q47 2 91 3t65 1q20 0 64 -1t91 -3q53 -2 115 -2q94 -2 147.5 -53.5t53.5 -151.5v-852q0 -72 -17.5 -119t-47 -75.5t-70.5 -41t-88 -12.5h-662v226h539v258h-359q-70 0 -114.5 14t-71.5 42t-38 71t-11 102zM418 451h260 v393h-260v-393z" />
<glyph unicode=":" horiz-adv-x="679" d="M162 0v360h364v-360h-364zM162 700v361h364v-361h-364z" />
<glyph unicode=";" horiz-adv-x="667" d="M41 -358l168 641h391l-330 -641h-229zM188 702v359h365v-359h-365z" />
<glyph unicode="&#x3c;" horiz-adv-x="1222" d="M88 381v301l1047 391v-338l-650 -203l650 -202v-342z" />
<glyph unicode="=" horiz-adv-x="1220" d="M88 127v289h1047v-289h-1047zM88 647v289h1047v-289h-1047z" />
<glyph unicode="&#x3e;" horiz-adv-x="1222" d="M88 -14v342l651 202l-651 203v338l1047 -391v-301z" />
<glyph unicode="?" horiz-adv-x="1007" d="M78 1198v248h581q102 0 160 -13.5t85.5 -43t33.5 -78.5t6 -119v-152q0 -45 -6 -74.5t-21.5 -53t-42 -44t-69.5 -45.5l-219 -133l-13 -233h-346l-6 186v41q0 31 4 51.5t16.5 36.5t36 32.5t60.5 39.5l223 135v219h-483zM219 0v360h365v-360h-365z" />
<glyph unicode="@" horiz-adv-x="1884" d="M106 629q0 190 69 352t189.5 279.5t285.5 183t358 65.5q190 0 334.5 -56t240.5 -152.5t145.5 -222.5t49.5 -265q0 -311 -148.5 -471t-455.5 -160h-433q-29 0 -60.5 8.5t-58 32t-44 66.5t-17.5 112v138q0 66 17.5 105.5t44 61t58.5 28.5t60 7h303v136h-403v184h487 q63 0 99.5 -19.5t54.5 -50t23.5 -67.5t5.5 -72v-442q0 -31 6 -44.5t41 -13.5q45 0 89 23.5t78 76t55.5 136.5t21.5 203q0 129 -44.5 233t-123 178t-187 114t-237.5 40q-158 0 -290 -58.5t-228.5 -160t-150.5 -235.5t-54 -284q0 -152 56 -282.5t155.5 -228t233.5 -153.5 t292 -56q176 0 328.5 67.5t257.5 202.5l123 -78q-115 -180 -301.5 -265t-411.5 -85q-209 0 -378 65.5t-287.5 182t-183.5 280.5t-65 361zM819 367h230v208h-230v-208z" />
<glyph unicode="A" horiz-adv-x="1398" d="M31 0l280 1278q12 55 27.5 88t42.5 51.5t67.5 23.5t104.5 5h299q63 0 104 -4t66 -21.5t39 -51.5t26 -93l281 -1276h-422l-59 324h-387l-58 -324h-411zM539 584h309l-113 604h-84z" />
<glyph unicode="B" horiz-adv-x="1517" d="M164 0v1446h852q72 0 129 -10.5t96 -40t59.5 -81.5t20.5 -134v-195q0 -43 -6 -86t-25.5 -79t-58.5 -62.5t-103 -34.5q59 -6 104.5 -17.5t75 -39t43 -75.5t13.5 -128v-187q0 -131 -64.5 -203.5t-214.5 -72.5h-921zM592 227h346v400h-346v-400zM592 850h326v369h-326v-369z " />
<glyph unicode="C" horiz-adv-x="1114" d="M150 264v907q0 45 10 94.5t39.5 89.5t84 65.5t142.5 25.5h627v-242h-465v-962h465v-242h-629q-86 0 -139.5 24.5t-84 63.5t-40.5 86t-10 90z" />
<glyph unicode="D" horiz-adv-x="1515" d="M164 0v1446h926q49 0 99 -10.5t89 -40t63.5 -81.5t24.5 -134v-904q0 -45 -11.5 -94t-41 -89t-82.5 -66.5t-139 -26.5h-928zM596 244h340v958h-340v-958z" />
<glyph unicode="E" horiz-adv-x="1120" d="M164 0v1446h899v-244h-465v-342h465v-244h-465v-372h465v-244h-899z" />
<glyph unicode="F" horiz-adv-x="1069" d="M164 0v1446h872v-244h-438v-342h438v-244h-438v-616h-434z" />
<glyph unicode="G" horiz-adv-x="1386" d="M150 240v925q0 131 69.5 206t204.5 75h819v-244h-659v-960h290v559h420v-561q0 -57 -24.5 -101.5t-61.5 -75t-80 -47t-81 -16.5q-74 -2 -136 -4q-53 -2 -104 -2h-145q-55 0 -115 2q-68 2 -150 4q-49 0 -94 20.5t-79 53t-54 76t-20 90.5z" />
<glyph unicode="H" horiz-adv-x="1548" d="M164 0v1448h434v-578h350v578h436v-1448h-436v606h-350v-606h-434z" />
<glyph unicode="I" horiz-adv-x="743" d="M164 0v1446h416v-1446h-416z" />
<glyph unicode="J" horiz-adv-x="923" d="M6 0v244h320v1202h434v-1170q0 -45 -11.5 -94t-42 -89t-85 -66.5t-140.5 -26.5h-475z" />
<glyph unicode="K" horiz-adv-x="1378" d="M164 0v1446h430v-1446h-430zM621 715l331 731h422l-346 -680l358 -766h-462z" />
<glyph unicode="L" horiz-adv-x="966" d="M164 0v1446h434v-1202h408v-244h-842z" />
<glyph unicode="M" horiz-adv-x="1804" d="M164 0v1446h504l221 -895h29l221 895h501v-1446h-346v956h-20l-234 -956h-274l-234 956h-24v-956h-344z" />
<glyph unicode="N" horiz-adv-x="1536" d="M164 0v1446h502l307 -903h24v903h373v-1446h-477l-336 963h-20v-963h-373z" />
<glyph unicode="O" horiz-adv-x="1505" d="M150 238v970q0 49 20 92t55 75t80 51.5t94 19.5q86 0 158 2q61 2 118.5 3t78.5 1q20 0 77.5 -1t118.5 -3q72 -2 158 -2q49 0 94 -19.5t79 -52.5t54.5 -75t20.5 -91v-970q0 -47 -20.5 -90.5t-54.5 -75t-79 -52t-94 -20.5q-86 -2 -158 -4q-61 -2 -121 -2h-155q-57 0 -119 2 q-72 2 -158 4q-49 0 -94 20.5t-79 52t-54 74.5t-20 91zM584 244h338v958h-338v-958z" />
<glyph unicode="P" horiz-adv-x="1359" d="M164 0v1446h872q145 0 208 -62.5t63 -203.5v-346q0 -129 -64.5 -204t-212.5 -75h-432v-555h-434zM596 791h317v419h-317v-419z" />
<glyph unicode="Q" horiz-adv-x="1505" d="M150 266v942q0 49 20 92t55 76t80 51.5t94 18.5q86 0 158 2q61 2 118.5 3t78.5 1q20 0 77.5 -1t118.5 -3q72 -2 156 -2q49 0 94 -18.5t80 -49t55.5 -73.5t20.5 -93v-936q0 -127 -64.5 -201.5t-212.5 -74.5h-188l121 -213h-336l-90 213h-160q-152 0 -214 71.5t-62 194.5z M584 244h338v958h-338v-958z" />
<glyph unicode="R" horiz-adv-x="1488" d="M164 0v1446h917q137 0 206 -75t69 -191v-197q0 -43 -6.5 -85t-29 -77t-68.5 -61.5t-126 -38.5q61 -8 102.5 -25.5t65 -49.5t34.5 -79t15 -114l27 -453h-432l-33 520q-4 59 -26.5 77.5t-81.5 18.5h-201v-616h-432zM596 844h322v375h-322v-375z" />
<glyph unicode="S" horiz-adv-x="1167" d="M88 905v250q0 68 13.5 121t46 91t88 58.5t141.5 20.5h657v-244h-512v-248l365 -131q57 -20 95 -40.5t59.5 -49t29.5 -69.5t8 -103v-237q0 -80 -14 -140.5t-48 -101.5t-91.5 -61.5t-143.5 -20.5h-692v244h557v284l-379 140q-86 31 -133 80t-47 157z" />
<glyph unicode="T" horiz-adv-x="1046" d="M4 1202v244h1038v-244h-305v-1202h-434v1202h-299z" />
<glyph unicode="U" horiz-adv-x="1492" d="M150 268v1178h434v-1202h325v1202h434v-1180q0 -47 -20 -94t-54 -85t-79 -62.5t-94 -24.5q-84 -2 -156 -4q-61 -2 -119 -2h-155q-55 0 -115 2q-70 2 -154 4q-49 0 -94 24.5t-79 63.5t-54 86t-20 94z" />
<glyph unicode="V" horiz-adv-x="1335" d="M6 1446h420l223 -1180h39l225 1180h410l-330 -1446h-655z" />
<glyph unicode="W" horiz-adv-x="2082" d="M23 1446h417l207 -1038h31l192 1038h387l177 -1038h34l205 1038h389l-309 -1446h-522l-172 1020h-21l-190 -1020h-510z" />
<glyph unicode="X" horiz-adv-x="1277" d="M0 -2l289 745l-234 703h412l178 -569h23l159 569h396l-211 -701l266 -747h-442l-185 596h-26l-209 -596h-416z" />
<glyph unicode="Y" horiz-adv-x="1153" d="M2 1446h381l186 -647h23l194 647h365l-356 -1028v-418h-437v418z" />
<glyph unicode="Z" horiz-adv-x="1048" d="M20 0v223l510 979h-469v244h951v-217l-514 -985h508v-244h-986z" />
<glyph unicode="[" horiz-adv-x="737" d="M166 -188v1851h467v-139h-238v-1571h246v-141h-475z" />
<glyph unicode="\" horiz-adv-x="835" d="M-27 1536h193l616 -1628h-192z" />
<glyph unicode="]" horiz-adv-x="737" d="M96 -47h244v1571h-236v139h465v-1851h-473v141z" />
<glyph unicode="^" horiz-adv-x="1218" d="M90 500l369 946h295l366 -946h-340l-178 575l-176 -575h-336z" />
<glyph unicode="_" horiz-adv-x="1024" d="M33 -123h960v-262h-960v262z" />
<glyph unicode="`" horiz-adv-x="770" d="M139 1446h367l166 -293h-207z" />
<glyph unicode="a" horiz-adv-x="1202" d="M57 260v141q0 82 23.5 133.5t61.5 78t84 35.5t89 9h404v172h-572v232h691q80 0 130 -22.5t78.5 -58.5t39 -82t10.5 -93v-578q0 -129 -40 -177t-126 -50q-74 -2 -135 -2q-53 -2 -105 -2h-141q-49 0 -103 2q-61 0 -133 2q-123 2 -189.5 63.5t-66.5 196.5zM422 229h303v215 h-303v-215z" />
<glyph unicode="b" horiz-adv-x="1249" d="M109 0v1536h372v-475h402q143 0 201.5 -69.5t58.5 -188.5v-533q0 -59 -13.5 -108t-43 -85t-79 -56.5t-120.5 -20.5h-778zM477 242h291v577h-291v-577z" />
<glyph unicode="c" horiz-adv-x="995" d="M106 258v547q0 82 24 132t61.5 77.5t84 37t91.5 9.5h581v-258h-467v-545h467v-258h-583q-45 0 -91.5 9t-83 37t-60.5 79t-24 133z" />
<glyph unicode="d" horiz-adv-x="1253" d="M106 270v533q0 43 10.5 89t38 84t79 61.5t133.5 23.5h403v475h371v-1536h-776q-82 0 -133.5 24.5t-79 64.5t-37 87t-9.5 94zM481 242h293v577h-293v-577z" />
<glyph unicode="e" horiz-adv-x="1193" d="M106 258v533q0 129 63.5 198.5t192.5 71.5q57 0 109 2q43 0 85 1t62 1t61.5 -1t84.5 -1q49 -2 106 -2q135 -2 193.5 -66.5t58.5 -191.5v-350h-641v-197h596v-256h-712q-80 0 -130.5 23.5t-79 61.5t-39 84t-10.5 89zM479 592h269v246h-269v-246z" />
<glyph unicode="f" horiz-adv-x="665" d="M59 819v242h82v221q0 45 9.5 91t37 82t77.5 58.5t132 22.5h326v-240h-215v-235h186v-242h-186v-819h-367v819h-82z" />
<glyph unicode="g" horiz-adv-x="1249" d="M106 283v508q0 47 10.5 95t38 86t79 62.5t131.5 26.5q59 0 112 2q45 0 87 1t59 1q23 0 64.5 -1t82.5 -1q49 -2 104 -2q49 0 97.5 -11.5t85.5 -40t60.5 -78.5t23.5 -128v-920q0 -45 -9.5 -93t-37 -87t-78.5 -64.5t-133 -25.5h-693v250h570v160h-395q-84 0 -134.5 23.5 t-78 60t-37 83t-9.5 93.5zM479 256h293v580h-293v-580z" />
<glyph unicode="h" horiz-adv-x="1255" d="M115 0v1536h374v-475h398q131 0 196.5 -66.5t65.5 -191.5v-803h-375v817h-285v-817h-374z" />
<glyph unicode="i" horiz-adv-x="591" d="M106 0v1061h379v-1061h-379zM106 1159v266h379v-266h-379z" />
<glyph unicode="j" horiz-adv-x="595" d="M-63 -139h176v1200h368v-1178q0 -135 -52 -202.5t-183 -67.5h-309v248zM111 1159v266h374v-266h-374z" />
<glyph unicode="k" horiz-adv-x="1222" d="M115 0v1536h370v-1536h-370zM526 532l336 529h393l-350 -506l314 -555h-431z" />
<glyph unicode="l" horiz-adv-x="604" d="M115 0v1536h368v-1536h-368z" />
<glyph unicode="m" horiz-adv-x="1843" d="M106 0v803q0 57 12.5 105t41 82t79 52.5t128.5 18.5h1112q147 0 202.5 -68.5t55.5 -189.5v-803h-377v819h-250v-819h-377v819h-252v-819h-375z" />
<glyph unicode="n" horiz-adv-x="1247" d="M106 0v811q0 250 254 250h529q141 0 196.5 -64.5t55.5 -185.5v-811h-375v819h-285v-819h-375z" />
<glyph unicode="o" d="M106 254v537q0 49 10.5 96t39 86t79 62.5t130.5 25.5q55 0 106 2q41 0 83 1t60 1q23 0 66 -1t84 -1q49 -2 104 -2q47 0 93.5 -10.5t82 -39t57 -78.5t21.5 -130v-535q0 -47 -10 -94t-37.5 -86t-78 -62.5t-132.5 -25.5q-59 -2 -112 -2q-45 -2 -86 -2h-119q-43 0 -84 2 q-49 0 -105 2q-49 0 -94 11.5t-79.5 39t-56.5 76.5t-22 127zM483 242h262v577h-262v-577z" />
<glyph unicode="p" horiz-adv-x="1249" d="M106 -387v1448h779q141 0 199.5 -68.5t58.5 -191.5v-541q0 -129 -60.5 -194.5t-201.5 -65.5h-402v-387h-373zM477 242h289v579h-289v-579z" />
<glyph unicode="q" horiz-adv-x="1247" d="M106 258v535q0 127 63.5 197.5t195.5 70.5h776v-1448h-371v387h-403q-129 0 -195 58.5t-66 199.5zM481 242h291v577h-291v-577z" />
<glyph unicode="r" horiz-adv-x="821" d="M106 0v803q0 119 59.5 188.5t201.5 69.5h469v-242h-353v-819h-377z" />
<glyph unicode="s" horiz-adv-x="1097" d="M84 0v225h623v189h-371q-84 0 -134 19.5t-76 58t-34 99t-8 142.5q0 72 9 132.5t36 103.5t77 67.5t132 24.5h635v-225h-531v-189h330q84 0 133 -19.5t76 -58.5t34 -97t7 -134q0 -82 -9 -144.5t-37 -105.5t-77 -65.5t-131 -22.5h-684z" />
<glyph unicode="t" horiz-adv-x="753" d="M29 819v242h106l172 352h201v-352h223v-242h-223v-579h223v-240h-360q-119 0 -177.5 53t-58.5 191v575h-106z" />
<glyph unicode="u" horiz-adv-x="1249" d="M106 270v791h375v-819h285v819h375v-791q0 -129 -63.5 -198.5t-192.5 -71.5q-63 -2 -117 -2q-47 -2 -94 -2h-131q-39 0 -80 2q-47 0 -98 2q-139 4 -199 68.5t-60 201.5z" />
<glyph unicode="v" horiz-adv-x="1198" d="M4 1061h410l184 -727h31l184 727h381l-348 -1061h-494z" />
<glyph unicode="w" horiz-adv-x="1990" d="M4 1061h404l188 -744h27l223 744h323l224 -744h28l185 744h381l-347 -1061h-436l-198 653h-21l-201 -653h-434z" />
<glyph unicode="x" horiz-adv-x="1187" d="M6 0l254 541l-207 520h398l149 -416h25l131 416h391l-195 -520l230 -541h-428l-150 420h-24l-172 -420h-402z" />
<glyph unicode="y" horiz-adv-x="1198" d="M4 1061h424l170 -725h31l172 725h393l-229 -725q-43 -135 -84 -265t-74 -231.5t-51 -163.5l-19 -63h-415l145 387q-117 0 -148 96z" />
<glyph unicode="z" horiz-adv-x="1046" d="M47 0v215l512 602h-489v244h929v-217l-514 -600h516v-244h-954z" />
<glyph unicode="{" horiz-adv-x="815" d="M123 733v39q49 0 83 32t34 83v534q0 72 7 118t31.5 73.5t70.5 39t124 11.5h234v-139h-228v-643q0 -35 -22.5 -56.5t-50.5 -31.5l-105 -39l107 -43q33 -12 52 -33t19 -55v-670h228v-141h-232q-68 0 -114 7t-72.5 29.5t-37.5 64.5t-11 112v593q0 53 -32 84t-85 31z" />
<glyph unicode="|" horiz-adv-x="638" d="M227 -389v2048h185v-2048h-185z" />
<glyph unicode="}" horiz-adv-x="815" d="M111 -47h227v670q0 35 19.5 55t52.5 33l110 43l-108 39q-29 10 -51.5 31.5t-22.5 56.5v643h-227v139h233q78 0 124 -11.5t69.5 -39t30.5 -73.5t7 -118v-534q0 -51 34 -83t83 -32v-39q-53 0 -85 -30.5t-32 -84.5v-593q0 -70 -11 -112t-37.5 -64.5t-72.5 -29.5t-114 -7 h-229v141z" />
<glyph unicode="~" horiz-adv-x="1243" d="M131 393v312q53 53 118.5 81.5t139.5 28.5q61 0 121.5 -21.5t117 -46t112 -46t108.5 -21.5q82 0 146.5 38t117.5 99v-311q-53 -53 -118.5 -82t-139.5 -29q-61 0 -120.5 21.5t-117 47t-111.5 47t-110 21.5q-80 0 -145.5 -38.5t-118.5 -100.5z" />
<glyph unicode="&#xa1;" horiz-adv-x="892" d="M242 -387l63 989h281l63 -989h-407zM264 700v361h365v-361h-365z" />
<glyph unicode="&#xa2;" horiz-adv-x="946" d="M115 258v547q0 82 23.5 132t61.5 77.5t84 37t91 9.5h117v194h159v-194h203v-258h-412v-545h412v-258h-203v-197h-159v197h-119q-45 0 -91 9t-83 37t-60.5 79t-23.5 133z" />
<glyph unicode="&#xa3;" horiz-adv-x="1150" d="M45 0v221h154l47 377h-105v223h135l35 275q6 55 17.5 94t34 63.5t60.5 35.5t101 11h541v-223h-430l-31 -256h279v-223h-308l-47 -377h285v240h266v-461h-1034z" />
<glyph unicode="&#xa4;" horiz-adv-x="1138" d="M63 305l109 109q-109 137 -109 311t109 311l-109 109l91 90l108 -109q68 53 146.5 81t160.5 28t161 -27.5t147 -81.5l108 109l90 -90l-108 -109q109 -137 108 -311q0 -174 -108 -311l108 -109l-90 -90l-108 109q-68 -53 -147 -81t-161 -28t-160.5 27.5t-146.5 81.5 l-108 -109zM250 725q0 -68 25.5 -129t68.5 -106.5t101.5 -72t125.5 -26.5q66 0 124.5 26.5t101.5 72t67.5 106.5t24.5 129t-24.5 129t-67.5 106.5t-101.5 72t-124.5 26.5q-68 0 -126 -26.5t-101 -72t-68.5 -106.5t-25.5 -129z" />
<glyph unicode="&#xa5;" horiz-adv-x="1150" d="M35 356v136h311l-39 114h-270v135h225l-194 559h342l157 -571h23l164 571h327l-192 -559h235v-135h-280l-43 -114h323v-136h-352v-356h-393v356h-344z" />
<glyph unicode="&#xa6;" horiz-adv-x="563" d="M125 0v602h324v-602h-324zM125 846v600h324v-600h-324z" />
<glyph unicode="&#xa7;" horiz-adv-x="1220" d="M129 391v264q0 109 33 163t110 54q-4 12 -6 38t-2 40v107q0 63 8.5 109t34 76t73.5 44t126 14h514v-208h-406v-172l289 -107q61 -23 99 -47.5t57.5 -57t26 -77.5t6.5 -109v-254q0 -111 -31 -170t-105 -59q4 -12 5.5 -40t1.5 -42v-96q0 -66 -8.5 -113t-34 -76.5t-76.5 -43 t-137 -13.5h-504v205h403v174l-287 106q-61 23 -99 47.5t-58.5 57.5t-26.5 78t-6 108zM498 289l233 -92v424l-233 92v-424z" />
<glyph unicode="&#xa8;" horiz-adv-x="784" d="M78 1167v258h252v-258h-252zM457 1167v258h252v-258h-252z" />
<glyph unicode="&#xa9;" horiz-adv-x="2134" d="M203 805q0 178 67.5 330.5t183 265t270.5 176t327 63.5t324.5 -63.5t268 -176t182 -265t66.5 -330.5q0 -182 -66.5 -337t-182 -267.5t-268 -177t-324.5 -64.5t-327 64.5t-270.5 177t-183 267.5t-67.5 337zM354 805q0 -154 53.5 -286t147.5 -229t221 -151.5t275 -54.5 q145 0 271 54.5t219 151.5t146.5 229t53.5 286q0 150 -53.5 279.5t-146.5 226t-219 152t-271 55.5q-147 0 -274.5 -55.5t-221.5 -152t-147.5 -226.5t-53.5 -279zM741 522v551q0 100 46.5 140t142.5 40h389v-163h-272v-582h272v-164h-393q-98 0 -141.5 43t-43.5 135z" />
<glyph unicode="&#xaa;" horiz-adv-x="1110" d="M172 481v111h762v-111h-762zM178 864v105q0 100 50.5 143t140.5 43h293v125h-416v166h502q94 0 141 -43t47 -141v-443q0 -49 -6 -76.5t-22.5 -42t-46.5 -19.5t-75 -5q-47 -2 -86 -2q-35 -2 -69 -2h-109q-35 0 -69 2q-39 0 -84 2q-92 2 -141.5 46t-49.5 142zM446 844h220 v155h-220v-155z" />
<glyph unicode="&#xab;" horiz-adv-x="1060" d="M47 526l287 379h246l-205 -377l205 -376h-246zM481 526l287 379h244l-203 -377l203 -376h-244z" />
<glyph unicode="&#xac;" horiz-adv-x="1220" d="M88 383v295h1047v-678h-295v383h-752z" />
<glyph unicode="&#xad;" horiz-adv-x="575" d="M39 383v293h500v-293h-500z" />
<glyph unicode="&#xae;" horiz-adv-x="1236" d="M119 1028q0 102 39 191.5t105.5 155t155.5 102t189 36.5t189.5 -36.5t156 -102t105.5 -155t39 -191.5q0 -104 -39 -193.5t-105.5 -156t-155.5 -103t-190 -36.5q-100 0 -189 36.5t-155.5 103t-105.5 156t-39 193.5zM246 1028q0 -80 27.5 -149.5t76.5 -120.5t114.5 -80 t143.5 -29q76 0 141.5 29t114.5 80t77 120.5t28 149.5t-28 147.5t-77 119t-114.5 80t-141.5 28.5q-78 0 -143.5 -28.5t-114.5 -80t-76.5 -119t-27.5 -147.5zM428 813v455h274q53 0 75 -22.5t22 -69.5v-60q0 -43 -19.5 -59.5t-52.5 -20.5q35 -8 49 -22q14 -16 19 -68l6 -133 h-148l-8 164q-2 20 -9 24.5t-30 4.5h-35v-193h-143zM571 1071h84v125h-84v-125z" />
<glyph unicode="&#xaf;" horiz-adv-x="776" d="M61 1204v166h656v-166h-656z" />
<glyph unicode="&#xb0;" horiz-adv-x="1099" d="M197 965q0 74 27.5 139t74.5 113.5t111.5 76t138.5 27.5t139.5 -27.5t113.5 -77t75.5 -113.5t27.5 -138t-27.5 -138.5t-75.5 -112.5t-113.5 -76t-139.5 -28t-138.5 28t-111.5 76t-74.5 112.5t-27.5 138.5zM408 965q0 -68 37.5 -116t101.5 -48q63 0 101 49t38 115 t-38 115.5t-101 49.5t-101 -50t-38 -115z" />
<glyph unicode="&#xb1;" horiz-adv-x="1220" d="M88 0v244h1045v-244h-1045zM88 557v264h373v240h301v-240h371v-264h-369v-238h-301v238h-375z" />
<glyph unicode="&#xb2;" horiz-adv-x="790" d="M86 520v125l342 299q25 23 38 44.5t13 62.5v110h-133v-157h-225v141q0 29 6 56.5t21.5 49t43 35.5t68.5 14l152 5l151 -5q86 -4 114 -49t28 -102v-98q0 -41 -21.5 -83t-73.5 -85l-260 -224h367v-139h-631z" />
<glyph unicode="&#xb3;" horiz-adv-x="718" d="M92 520v137h283v195h-240v131h234v176h-271v139h344q86 0 127 -29.5t41 -109.5v-112q0 -68 -28.5 -97.5t-77.5 -38.5q51 -10 86 -32q35 -25 35 -99v-121q0 -78 -41 -108.5t-131 -30.5h-361z" />
<glyph unicode="&#xb4;" horiz-adv-x="770" d="M141 1153l166 293h367l-326 -293h-207z" />
<glyph unicode="&#xb5;" horiz-adv-x="1249" d="M109 -387v1448h372v-819h285v819h375v-791q0 -53 -13.5 -102t-43 -86t-79 -59.5t-120.5 -22.5h-412v-387h-364z" />
<glyph unicode="&#xb6;" horiz-adv-x="1187" d="M135 719v332q0 80 21.5 129t58.5 75.5t88 35.5t111 9h477v-1689h-256v846h-221q-59 0 -109.5 10t-88.5 39t-59.5 80t-21.5 133zM473 682h162v397h-162v-397zM940 -389v1689h113v-1689h-113z" />
<glyph unicode="&#xb7;" horiz-adv-x="675" d="M156 358v361h364v-361h-364z" />
<glyph unicode="&#xb8;" horiz-adv-x="733" d="M88 -389l326 293h207l-166 -293h-367z" />
<glyph unicode="&#xb9;" horiz-adv-x="757" d="M109 1071v141l262 88h157v-641h152v-139h-545v139h168v476z" />
<glyph unicode="&#xba;" horiz-adv-x="1087" d="M172 481v111h752v-111h-752zM174 860v391q0 193 188 195h74q29 0 59.5 1t47.5 1q16 0 45.5 -1t60.5 -1h76q94 -2 141 -47t47 -142v-387q0 -193 -190 -194q-43 -2 -80 -2q-33 -2 -65 -2h-93q-27 0 -55 2q-33 0 -70 2q-186 2 -186 184zM446 848h195v424h-195v-424z" />
<glyph unicode="&#xbb;" horiz-adv-x="1058" d="M47 152l205 376l-205 377h246l287 -379l-287 -374h-246zM481 152l205 376l-205 377h246l287 -379l-287 -374h-246z" />
<glyph unicode="&#xbc;" horiz-adv-x="1740" d="M78 1071v141l262 88h158v-641h151v-139h-545v139h168v476zM598 -78l348 1467h162l-348 -1467h-162zM993 160v127l230 493h340v-481h110v-139h-110v-160h-232v160h-338zM1176 299h178v344h-19z" />
<glyph unicode="&#xbd;" horiz-adv-x="1740" d="M80 1071v141l260 88h160v-643h153v-139h-547v139h168v478zM580 -78l348 1467h162l-349 -1467h-161zM1004 0v125l344 301q8 8 17 16.5t17.5 19.5t12.5 27.5t4 42.5v109h-135v-160h-224v144q0 66 34 109.5t106 45.5l159 2l142 -2q82 -2 112.5 -41t30.5 -110v-97 q0 -47 -17.5 -77.5t-58.5 -67.5l-266 -248h354v-139h-632z" />
<glyph unicode="&#xbe;" horiz-adv-x="1740" d="M131 520v137h285v195h-238v131h232v178h-271v137h344q86 0 127 -29.5t41 -109.5v-110q0 -68 -28.5 -98.5t-77.5 -39.5q51 -10 86 -30q35 -25 35 -99v-120q0 -78 -41 -110t-131 -32h-363zM616 -78l349 1467h161l-348 -1467h-162zM1004 160v127l229 493h340v-481h110v-139 h-110v-160h-232v160h-337zM1186 299h178v344h-18z" />
<glyph unicode="&#xbf;" horiz-adv-x="1007" d="M63 18q0 43 7.5 73t23 54.5t42 46t67.5 44.5l221 129l10 237h348l6 -190v-35q0 -29 -4 -49.5t-14 -38t-28.5 -32.5t-49.5 -34l-243 -143v-219h479v-248h-578q-102 0 -159.5 13.5t-85 43t-35 77.5t-7.5 120v151zM424 698v363h364v-363h-364z" />
<glyph unicode="&#xc0;" horiz-adv-x="1398" d="M31 0l280 1278q12 55 27.5 88t42.5 51.5t67.5 23.5t104.5 5h299q63 0 104 -4t66 -21.5t39 -51.5t26 -93l281 -1276h-422l-59 324h-387l-58 -324h-411zM367 1831h366l166 -295h-206zM539 584h309l-113 604h-84z" />
<glyph unicode="&#xc1;" horiz-adv-x="1398" d="M31 0l280 1278q12 55 27.5 88t42.5 51.5t67.5 23.5t104.5 5h299q63 0 104 -4t66 -21.5t39 -51.5t26 -93l281 -1276h-422l-59 324h-387l-58 -324h-411zM539 584h309l-113 604h-84zM557 1536l166 295h366l-325 -295h-207z" />
<glyph unicode="&#xc2;" horiz-adv-x="1398" d="M31 0l280 1278q12 55 27.5 88t42.5 51.5t67.5 23.5t104.5 5h299q63 0 104 -4t66 -21.5t39 -51.5t26 -93l281 -1276h-422l-59 324h-387l-58 -324h-411zM377 1538l164 293h330l166 -293h-211l-117 160l-121 -160h-211zM539 584h309l-113 604h-84z" />
<glyph unicode="&#xc3;" horiz-adv-x="1398" d="M31 0l280 1278q12 55 27.5 88t42.5 51.5t67.5 23.5t104.5 5h299q63 0 104 -4t66 -21.5t39 -51.5t26 -93l281 -1276h-422l-59 324h-387l-58 -324h-411zM381 1571v153q25 31 64.5 54.5t90.5 23.5q39 0 77 -12t75 -25.5t71.5 -26t67.5 -12.5q49 0 109.5 17.5t107.5 60.5 v-164q-41 -55 -98 -76.5t-117 -21.5q-41 0 -79 12.5t-74.5 27.5t-74.5 28.5t-77 13.5q-29 0 -53.5 -8t-44.5 -19q-23 -12 -45 -26zM539 584h309l-113 604h-84z" />
<glyph unicode="&#xc4;" horiz-adv-x="1398" d="M31 0l280 1278q12 55 27.5 88t42.5 51.5t67.5 23.5t104.5 5h299q63 0 104 -4t66 -21.5t39 -51.5t26 -93l281 -1276h-422l-59 324h-387l-58 -324h-411zM379 1552v260h252v-260h-252zM539 584h309l-113 604h-84zM758 1552v260h252v-260h-252z" />
<glyph unicode="&#xc5;" horiz-adv-x="1398" d="M31 0l280 1278q12 55 27.5 88t42.5 51.5t67.5 23.5t104.5 5h299q63 0 104 -4t66 -21.5t39 -51.5t26 -93l281 -1276h-422l-59 324h-387l-58 -324h-411zM449 1655v117q0 27 4 53t18.5 47.5t41 36t73.5 14.5h45q18 0 36.5 1t29.5 1q16 0 36.5 -1t36.5 -1h41 q57 -2 97.5 -31.5t40.5 -113.5v-115q0 -25 -4.5 -50.5t-19.5 -47t-43 -35.5t-73 -14q-25 -2 -47 -3h-137q-23 0 -43 3q-27 0 -51.5 6t-43 20t-28.5 42t-10 71zM539 584h309l-113 604h-84zM619 1642h160v154h-160v-154z" />
<glyph unicode="&#xc6;" horiz-adv-x="1609" d="M31 0l278 1278q10 49 26.5 82t43.5 52.5t66.5 26.5t97.5 7h1009v-246h-467l62 -342h405v-244h-368l71 -372h297v-242h-628l-60 324h-372l-58 -324h-403zM526 569h305l-116 631h-72z" />
<glyph unicode="&#xc7;" horiz-adv-x="1114" d="M150 264v907q0 45 10 94.5t39.5 89.5t84 65.5t142.5 25.5h627v-242h-465v-962h465v-242h-629q-86 0 -139.5 24.5t-84 63.5t-40.5 86t-10 90zM307 -389l326 293h207l-166 -293h-367z" />
<glyph unicode="&#xc8;" horiz-adv-x="1120" d="M164 0v1446h899v-244h-465v-342h465v-244h-465v-372h465v-244h-899zM256 1831h366l166 -295h-206z" />
<glyph unicode="&#xc9;" horiz-adv-x="1120" d="M164 0v1446h899v-244h-465v-342h465v-244h-465v-372h465v-244h-899zM424 1536l166 295h366l-325 -295h-207z" />
<glyph unicode="&#xca;" horiz-adv-x="1120" d="M164 0v1446h899v-244h-465v-342h465v-244h-465v-372h465v-244h-899zM295 1538l164 293h330l166 -293h-211l-117 160l-121 -160h-211z" />
<glyph unicode="&#xcb;" horiz-adv-x="1120" d="M164 0v1446h899v-244h-465v-342h465v-244h-465v-372h465v-244h-899zM303 1552v260h252v-260h-252zM682 1552v260h252v-260h-252z" />
<glyph unicode="&#xcc;" horiz-adv-x="743" d="M-31 1831h366l166 -295h-206zM164 0v1446h416v-1446h-416z" />
<glyph unicode="&#xcd;" horiz-adv-x="743" d="M164 0v1446h416v-1446h-416zM197 1536l166 295h366l-325 -295h-207z" />
<glyph unicode="&#xce;" horiz-adv-x="743" d="M43 1538l164 293h330l166 -293h-211l-117 160l-121 -160h-211zM164 0v1446h416v-1446h-416z" />
<glyph unicode="&#xcf;" horiz-adv-x="743" d="M60 1552v260h252v-260h-252zM164 0v1446h416v-1446h-416zM439 1552v260h252v-260h-252z" />
<glyph unicode="&#xd0;" horiz-adv-x="1515" d="M14 651v217h150v578h923q152 0 215.5 -70.5t63.5 -195.5v-904q0 -123 -64.5 -199.5t-209.5 -76.5h-928v653zM596 244h340v958h-340v-334h115v-217l-115 2v-409z" />
<glyph unicode="&#xd1;" horiz-adv-x="1536" d="M164 0v1446h502l307 -903h24v903h373v-1446h-477l-336 963h-20v-963h-373zM451 1571v153q25 31 64.5 54.5t90.5 23.5q39 0 77 -12t75 -25.5t71.5 -26t67.5 -12.5q49 0 109.5 17.5t107.5 60.5v-164q-41 -55 -98 -76.5t-117 -21.5q-41 0 -79 12.5t-74.5 27.5t-74.5 28.5 t-77 13.5q-29 0 -53.5 -8t-44.5 -19q-23 -12 -45 -26z" />
<glyph unicode="&#xd2;" horiz-adv-x="1505" d="M150 238v970q0 49 20 92t55 75t80 51.5t94 19.5q86 0 158 2q61 2 118.5 3t78.5 1q20 0 77.5 -1t118.5 -3q72 -2 158 -2q49 0 94 -19.5t79 -52.5t54.5 -75t20.5 -91v-970q0 -47 -20.5 -90.5t-54.5 -75t-79 -52t-94 -20.5q-86 -2 -158 -4q-61 -2 -121 -2h-155q-57 0 -119 2 q-72 2 -158 4q-49 0 -94 20.5t-79 52t-54 74.5t-20 91zM361 1831h366l166 -295h-206zM584 244h338v958h-338v-958z" />
<glyph unicode="&#xd3;" horiz-adv-x="1505" d="M150 238v970q0 49 20 92t55 75t80 51.5t94 19.5q86 0 158 2q61 2 118.5 3t78.5 1q20 0 77.5 -1t118.5 -3q72 -2 158 -2q49 0 94 -19.5t79 -52.5t54.5 -75t20.5 -91v-970q0 -47 -20.5 -90.5t-54.5 -75t-79 -52t-94 -20.5q-86 -2 -158 -4q-61 -2 -121 -2h-155q-57 0 -119 2 q-72 2 -158 4q-49 0 -94 20.5t-79 52t-54 74.5t-20 91zM584 244h338v958h-338v-958zM604 1536l166 295h366l-325 -295h-207z" />
<glyph unicode="&#xd4;" horiz-adv-x="1505" d="M150 238v970q0 49 20 92t55 75t80 51.5t94 19.5q86 0 158 2q61 2 118.5 3t78.5 1q20 0 77.5 -1t118.5 -3q72 -2 158 -2q49 0 94 -19.5t79 -52.5t54.5 -75t20.5 -91v-970q0 -47 -20.5 -90.5t-54.5 -75t-79 -52t-94 -20.5q-86 -2 -158 -4q-61 -2 -121 -2h-155q-57 0 -119 2 q-72 2 -158 4q-49 0 -94 20.5t-79 52t-54 74.5t-20 91zM413 1538l164 293h330l166 -293h-211l-117 160l-121 -160h-211zM584 244h338v958h-338v-958z" />
<glyph unicode="&#xd5;" horiz-adv-x="1505" d="M150 238v970q0 49 20 92t55 75t80 51.5t94 19.5q86 0 158 2q61 2 118.5 3t78.5 1q20 0 77.5 -1t118.5 -3q72 -2 158 -2q49 0 94 -19.5t79 -52.5t54.5 -75t20.5 -91v-970q0 -47 -20.5 -90.5t-54.5 -75t-79 -52t-94 -20.5q-86 -2 -158 -4q-61 -2 -121 -2h-155q-57 0 -119 2 q-72 2 -158 4q-49 0 -94 20.5t-79 52t-54 74.5t-20 91zM433 1571v153q25 31 64.5 54.5t90.5 23.5q39 0 77 -12t75 -25.5t71.5 -26t67.5 -12.5q49 0 109.5 17.5t107.5 60.5v-164q-41 -55 -98 -76.5t-117 -21.5q-41 0 -79 12.5t-74.5 27.5t-74.5 28.5t-77 13.5q-29 0 -53.5 -8 t-44.5 -19q-23 -12 -45 -26zM584 244h338v958h-338v-958z" />
<glyph unicode="&#xd6;" horiz-adv-x="1505" d="M150 238v970q0 49 20 92t55 75t80 51.5t94 19.5q86 0 158 2q61 2 118.5 3t78.5 1q20 0 77.5 -1t118.5 -3q72 -2 158 -2q49 0 94 -19.5t79 -52.5t54.5 -75t20.5 -91v-970q0 -47 -20.5 -90.5t-54.5 -75t-79 -52t-94 -20.5q-86 -2 -158 -4q-61 -2 -121 -2h-155q-57 0 -119 2 q-72 2 -158 4q-49 0 -94 20.5t-79 52t-54 74.5t-20 91zM436 1552v260h252v-260h-252zM584 244h338v958h-338v-958zM815 1552v260h252v-260h-252z" />
<glyph unicode="&#xd7;" d="M84 197l330 327l-328 330l213 213l330 -330l329 332l207 -207l-329 -330l327 -329l-211 -211l-329 330l-332 -334z" />
<glyph unicode="&#xd8;" horiz-adv-x="1505" d="M150 266v901q0 135 70.5 204t205.5 73q61 2 115 4q47 2 91 3t66 1q37 0 94.5 -2t94.5 -4l84 223h225l-92 -227q106 -4 179 -66.5t73 -197.5v-902q0 -131 -71 -201.5t-206 -74.5q-59 -2 -112 -4q-45 -2 -90 -2h-113q-25 0 -53.5 1t-54 2t-44.5 1l-84 -221h-225l90 225 q-123 4 -183 76t-60 188zM584 244h336v958h-336v-958z" />
<glyph unicode="&#xd9;" horiz-adv-x="1492" d="M150 268v1178h434v-1202h325v1202h434v-1180q0 -47 -20 -94t-54 -85t-79 -62.5t-94 -24.5q-84 -2 -156 -4q-61 -2 -119 -2h-155q-55 0 -115 2q-70 2 -154 4q-49 0 -94 24.5t-79 63.5t-54 86t-20 94zM352 1831h366l166 -295h-206z" />
<glyph unicode="&#xda;" horiz-adv-x="1492" d="M150 268v1178h434v-1202h325v1202h434v-1180q0 -47 -20 -94t-54 -85t-79 -62.5t-94 -24.5q-84 -2 -156 -4q-61 -2 -119 -2h-155q-55 0 -115 2q-70 2 -154 4q-49 0 -94 24.5t-79 63.5t-54 86t-20 94zM619 1536l166 295h366l-325 -295h-207z" />
<glyph unicode="&#xdb;" horiz-adv-x="1492" d="M150 268v1178h434v-1202h325v1202h434v-1180q0 -47 -20 -94t-54 -85t-79 -62.5t-94 -24.5q-84 -2 -156 -4q-61 -2 -119 -2h-155q-55 0 -115 2q-70 2 -154 4q-49 0 -94 24.5t-79 63.5t-54 86t-20 94zM417 1538l164 293h330l166 -293h-211l-117 160l-121 -160h-211z" />
<glyph unicode="&#xdc;" horiz-adv-x="1492" d="M150 268v1178h434v-1202h325v1202h434v-1180q0 -47 -20 -94t-54 -85t-79 -62.5t-94 -24.5q-84 -2 -156 -4q-61 -2 -119 -2h-155q-55 0 -115 2q-70 2 -154 4q-49 0 -94 24.5t-79 63.5t-54 86t-20 94zM430 1552v260h252v-260h-252zM809 1552v260h252v-260h-252z" />
<glyph unicode="&#xdd;" horiz-adv-x="1153" d="M2 1446h381l186 -647h23l194 647h365l-356 -1028v-418h-437v418zM424 1536l166 295h366l-325 -295h-207z" />
<glyph unicode="&#xde;" horiz-adv-x="1341" d="M164 0v1446h430v-156h436q135 0 206 -57t71 -209v-350q0 -150 -73 -213.5t-206 -63.5h-432v-397h-432zM596 641h317v403h-317v-403z" />
<glyph unicode="&#xdf;" horiz-adv-x="1247" d="M106 0v1268q0 143 56.5 203.5t208.5 64.5q41 0 78 2q33 2 68.5 3t62.5 1t62.5 -1t70.5 -3q39 -2 82 -2q143 -4 210.5 -59.5t67.5 -194.5v-192q0 -111 -37 -166.5t-139 -71.5q72 -2 119 -20.5t74.5 -53.5t38 -85t10.5 -113v-310q0 -141 -64.5 -205.5t-202.5 -64.5h-272 v225h178v518h-178v228h135v340h-266v-1311h-363z" />
<glyph unicode="&#xe0;" horiz-adv-x="1202" d="M57 260v141q0 82 23.5 133.5t61.5 78t84 35.5t89 9h404v172h-572v232h691q80 0 130 -22.5t78.5 -58.5t39 -82t10.5 -93v-578q0 -129 -40 -177t-126 -50q-74 -2 -135 -2q-53 -2 -105 -2h-141q-49 0 -103 2q-61 0 -133 2q-123 2 -189.5 63.5t-66.5 196.5zM233 1446h367 l166 -293h-207zM422 229h303v215h-303v-215z" />
<glyph unicode="&#xe1;" horiz-adv-x="1202" d="M57 260v141q0 82 23.5 133.5t61.5 78t84 35.5t89 9h404v172h-572v232h691q80 0 130 -22.5t78.5 -58.5t39 -82t10.5 -93v-578q0 -129 -40 -177t-126 -50q-74 -2 -135 -2q-53 -2 -105 -2h-141q-49 0 -103 2q-61 0 -133 2q-123 2 -189.5 63.5t-66.5 196.5zM413 1153l166 293 h367l-326 -293h-207zM422 229h303v215h-303v-215z" />
<glyph unicode="&#xe2;" horiz-adv-x="1202" d="M57 260v141q0 82 23.5 133.5t61.5 78t84 35.5t89 9h404v172h-572v232h691q80 0 130 -22.5t78.5 -58.5t39 -82t10.5 -93v-578q0 -129 -40 -177t-126 -50q-74 -2 -135 -2q-53 -2 -105 -2h-141q-49 0 -103 2q-61 0 -133 2q-123 2 -189.5 63.5t-66.5 196.5zM279 1153l164 293 h329l166 -293h-211l-114 160l-121 -160h-213zM422 229h303v215h-303v-215z" />
<glyph unicode="&#xe3;" horiz-adv-x="1202" d="M57 260v141q0 82 23.5 133.5t61.5 78t84 35.5t89 9h404v172h-572v232h691q80 0 130 -22.5t78.5 -58.5t39 -82t10.5 -93v-578q0 -129 -40 -177t-126 -50q-74 -2 -135 -2q-53 -2 -105 -2h-141q-49 0 -103 2q-61 0 -133 2q-123 2 -189.5 63.5t-66.5 196.5zM262 1190v156 q25 31 65 55t91 24q39 0 76.5 -12t74.5 -27.5t71 -27.5t66 -12q49 0 109.5 17t108.5 60v-161q-41 -55 -98.5 -77t-116.5 -22q-41 0 -79 12.5t-75 28t-74 27.5t-76 12q-29 0 -53 -8t-45 -18q-23 -12 -45 -27zM422 229h303v215h-303v-215z" />
<glyph unicode="&#xe4;" horiz-adv-x="1202" d="M57 260v141q0 82 23.5 133.5t61.5 78t84 35.5t89 9h404v172h-572v232h691q80 0 130 -22.5t78.5 -58.5t39 -82t10.5 -93v-578q0 -129 -40 -177t-126 -50q-74 -2 -135 -2q-53 -2 -105 -2h-141q-49 0 -103 2q-61 0 -133 2q-123 2 -189.5 63.5t-66.5 196.5zM286 1167v258h252 v-258h-252zM422 229h303v215h-303v-215zM665 1167v258h252v-258h-252z" />
<glyph unicode="&#xe5;" horiz-adv-x="1202" d="M57 260v141q0 82 23.5 133.5t61.5 78t84 35.5t89 9h404v172h-572v232h691q80 0 130 -22.5t78.5 -58.5t39 -82t10.5 -93v-578q0 -129 -40 -177t-126 -50q-74 -2 -135 -2q-53 -2 -105 -2h-141q-49 0 -103 2q-61 0 -133 2q-123 2 -189.5 63.5t-66.5 196.5zM352 1266v116 q0 27 4.5 53.5t18.5 48t41 36t74 14.5h45q18 0 36.5 1t28.5 1q16 0 37 -1t37 -1h41q57 -2 97 -31.5t40 -113.5v-115q0 -25 -4 -50.5t-19.5 -47t-43 -36t-72.5 -14.5q-25 -2 -47 -2h-137q-23 0 -43 2q-27 0 -51.5 6.5t-43 20.5t-29 42t-10.5 71zM422 229h303v215h-303v-215z M522 1253h160v154h-160v-154z" />
<glyph unicode="&#xe6;" horiz-adv-x="1687" d="M57 260v141q0 135 68 195.5t190 60.5h373v172h-541v232h512q72 0 121 -25.5t76 -89.5q16 57 68.5 85t111.5 30q37 0 72 2q29 0 56.5 1t39.5 1q10 0 37 -1t55 -1q33 -2 68 -2q139 -4 195.5 -65.5t56.5 -192.5v-350h-596v-197h551v-256h-535q-61 0 -108 26.5t-70 79.5 q-25 -47 -69 -75.5t-99 -30.5q-39 -2 -74 -4q-29 -2 -59 -2h-92q-33 0 -66 2q-39 2 -82 4q-125 4 -192.5 63.5t-67.5 196.5zM414 229h270v215h-270v-215zM1016 608h272v230h-272v-230z" />
<glyph unicode="&#xe7;" horiz-adv-x="995" d="M106 258v547q0 82 24 132t61.5 77.5t84 37t91.5 9.5h581v-258h-467v-545h467v-258h-583q-45 0 -91.5 9t-83 37t-60.5 79t-24 133zM248 -389l325 293h209l-166 -293h-368z" />
<glyph unicode="&#xe8;" horiz-adv-x="1193" d="M106 258v533q0 129 63.5 198.5t192.5 71.5q57 0 109 2q43 0 85 1t62 1t61.5 -1t84.5 -1q49 -2 106 -2q135 -2 193.5 -66.5t58.5 -191.5v-350h-641v-197h596v-256h-712q-80 0 -130.5 23.5t-79 61.5t-39 84t-10.5 89zM219 1446h367l166 -293h-207zM479 592h269v246h-269 v-246z" />
<glyph unicode="&#xe9;" horiz-adv-x="1193" d="M106 258v533q0 129 63.5 198.5t192.5 71.5q57 0 109 2q43 0 85 1t62 1t61.5 -1t84.5 -1q49 -2 106 -2q135 -2 193.5 -66.5t58.5 -191.5v-350h-641v-197h596v-256h-712q-80 0 -130.5 23.5t-79 61.5t-39 84t-10.5 89zM458 1153l166 293h367l-326 -293h-207zM479 592h269 v246h-269v-246z" />
<glyph unicode="&#xea;" horiz-adv-x="1193" d="M106 258v533q0 129 63.5 198.5t192.5 71.5q57 0 109 2q43 0 85 1t62 1t61.5 -1t84.5 -1q49 -2 106 -2q135 -2 193.5 -66.5t58.5 -191.5v-350h-641v-197h596v-256h-712q-80 0 -130.5 23.5t-79 61.5t-39 84t-10.5 89zM285 1153l164 293h329l166 -293h-211l-114 160 l-121 -160h-213zM479 592h269v246h-269v-246z" />
<glyph unicode="&#xeb;" horiz-adv-x="1193" d="M106 258v533q0 129 63.5 198.5t192.5 71.5q57 0 109 2q43 0 85 1t62 1t61.5 -1t84.5 -1q49 -2 106 -2q135 -2 193.5 -66.5t58.5 -191.5v-350h-641v-197h596v-256h-712q-80 0 -130.5 23.5t-79 61.5t-39 84t-10.5 89zM301 1167v258h252v-258h-252zM479 592h269v246h-269 v-246zM680 1167v258h252v-258h-252z" />
<glyph unicode="&#xec;" horiz-adv-x="591" d="M-99 1446h367l166 -293h-207zM106 0v1061h379v-1061h-379z" />
<glyph unicode="&#xed;" horiz-adv-x="591" d="M106 0v1061h379v-1061h-379zM172 1153l166 293h367l-326 -293h-207z" />
<glyph unicode="&#xee;" horiz-adv-x="591" d="M-35 1153l164 293h329l166 -293h-211l-114 160l-121 -160h-213zM106 0v1061h379v-1061h-379z" />
<glyph unicode="&#xef;" horiz-adv-x="591" d="M-17 1167v258h252v-258h-252zM106 0v1061h379v-1061h-379zM362 1167v258h252v-258h-252z" />
<glyph unicode="&#xf0;" d="M106 248v461q0 78 17.5 129t48.5 81.5t75 44t99 13.5h299l-184 215l-225 -84l-80 139l198 70l-157 180l323 115l144 -176l172 63l82 -137l-150 -53l295 -361q33 -39 46 -86t13 -100v-494q0 -133 -60.5 -199.5t-197.5 -68.5q-55 -2 -108 -2q-45 -2 -90 -2h-129 q-37 0 -76 2q-45 0 -96 2q-258 2 -259 248zM481 242h267v493h-267v-493z" />
<glyph unicode="&#xf1;" horiz-adv-x="1247" d="M106 0v811q0 250 254 250h529q141 0 196.5 -64.5t55.5 -185.5v-811h-375v819h-285v-819h-375zM295 1190v156q25 31 65 55t91 24q39 0 76.5 -12t74.5 -27.5t71 -27.5t66 -12q49 0 109.5 17t108.5 60v-161q-41 -55 -98.5 -77t-116.5 -22q-41 0 -79 12.5t-75 28t-74 27.5 t-76 12q-29 0 -53 -8t-45 -18q-23 -12 -45 -27z" />
<glyph unicode="&#xf2;" d="M106 254v537q0 49 10.5 96t39 86t79 62.5t130.5 25.5q55 0 106 2q41 0 83 1t60 1q23 0 66 -1t84 -1q49 -2 104 -2q47 0 93.5 -10.5t82 -39t57 -78.5t21.5 -130v-535q0 -47 -10 -94t-37.5 -86t-78 -62.5t-132.5 -25.5q-59 -2 -112 -2q-45 -2 -86 -2h-119q-43 0 -84 2 q-49 0 -105 2q-49 0 -94 11.5t-79.5 39t-56.5 76.5t-22 127zM231 1446h367l166 -293h-207zM483 242h262v577h-262v-577z" />
<glyph unicode="&#xf3;" d="M106 254v537q0 49 10.5 96t39 86t79 62.5t130.5 25.5q55 0 106 2q41 0 83 1t60 1q23 0 66 -1t84 -1q49 -2 104 -2q47 0 93.5 -10.5t82 -39t57 -78.5t21.5 -130v-535q0 -47 -10 -94t-37.5 -86t-78 -62.5t-132.5 -25.5q-59 -2 -112 -2q-45 -2 -86 -2h-119q-43 0 -84 2 q-49 0 -105 2q-49 0 -94 11.5t-79.5 39t-56.5 76.5t-22 127zM473 1153l166 293h367l-326 -293h-207zM483 242h262v577h-262v-577z" />
<glyph unicode="&#xf4;" d="M106 254v537q0 49 10.5 96t39 86t79 62.5t130.5 25.5q55 0 106 2q41 0 83 1t60 1q23 0 66 -1t84 -1q49 -2 104 -2q47 0 93.5 -10.5t82 -39t57 -78.5t21.5 -130v-535q0 -47 -10 -94t-37.5 -86t-78 -62.5t-132.5 -25.5q-59 -2 -112 -2q-45 -2 -86 -2h-119q-43 0 -84 2 q-49 0 -105 2q-49 0 -94 11.5t-79.5 39t-56.5 76.5t-22 127zM287 1153l164 293h329l166 -293h-211l-114 160l-121 -160h-213zM483 242h262v577h-262v-577z" />
<glyph unicode="&#xf5;" d="M106 254v537q0 49 10.5 96t39 86t79 62.5t130.5 25.5q55 0 106 2q41 0 83 1t60 1q23 0 66 -1t84 -1q49 -2 104 -2q47 0 93.5 -10.5t82 -39t57 -78.5t21.5 -130v-535q0 -47 -10 -94t-37.5 -86t-78 -62.5t-132.5 -25.5q-59 -2 -112 -2q-45 -2 -86 -2h-119q-43 0 -84 2 q-49 0 -105 2q-49 0 -94 11.5t-79.5 39t-56.5 76.5t-22 127zM293 1190v156q25 31 65 55t91 24q39 0 76.5 -12t74.5 -27.5t71 -27.5t66 -12q49 0 109.5 17t108.5 60v-161q-41 -55 -98.5 -77t-116.5 -22q-41 0 -79 12.5t-75 28t-74 27.5t-76 12q-29 0 -53 -8t-45 -18 q-23 -12 -45 -27zM483 242h262v577h-262v-577z" />
<glyph unicode="&#xf6;" d="M106 254v537q0 49 10.5 96t39 86t79 62.5t130.5 25.5q55 0 106 2q41 0 83 1t60 1q23 0 66 -1t84 -1q49 -2 104 -2q47 0 93.5 -10.5t82 -39t57 -78.5t21.5 -130v-535q0 -47 -10 -94t-37.5 -86t-78 -62.5t-132.5 -25.5q-59 -2 -112 -2q-45 -2 -86 -2h-119q-43 0 -84 2 q-49 0 -105 2q-49 0 -94 11.5t-79.5 39t-56.5 76.5t-22 127zM303 1167v258h252v-258h-252zM483 242h262v577h-262v-577zM682 1167v258h252v-258h-252z" />
<glyph unicode="&#xf7;" horiz-adv-x="1220" d="M88 389v281h1047v-281h-1047zM492 53v260h266v-260h-266zM492 748v260h264v-260h-264z" />
<glyph unicode="&#xf8;" d="M106 254v537q0 135 61.5 200.5t197.5 69.5q53 0 100 2q41 0 80 1t61 1q10 0 34 -1t46 -1h55l74 174h209l-84 -184q100 -14 141 -82t41 -168v-535q0 -131 -61.5 -197.5t-196.5 -70.5q-55 -2 -106 -4q-43 -2 -86 -2h-66q-25 0 -65.5 1t-65.5 3l-74 -186h-208l88 198 q-96 16 -135.5 86t-39.5 158zM483 242h262v577h-262v-577z" />
<glyph unicode="&#xf9;" horiz-adv-x="1249" d="M106 270v791h375v-819h285v819h375v-791q0 -129 -63.5 -198.5t-192.5 -71.5q-63 -2 -117 -2q-47 -2 -94 -2h-131q-39 0 -80 2q-47 0 -98 2q-139 4 -199 68.5t-60 201.5zM231 1446h367l166 -293h-207z" />
<glyph unicode="&#xfa;" horiz-adv-x="1249" d="M106 270v791h375v-819h285v819h375v-791q0 -129 -63.5 -198.5t-192.5 -71.5q-63 -2 -117 -2q-47 -2 -94 -2h-131q-39 0 -80 2q-47 0 -98 2q-139 4 -199 68.5t-60 201.5zM491 1153l166 293h367l-326 -293h-207z" />
<glyph unicode="&#xfb;" horiz-adv-x="1249" d="M106 270v791h375v-819h285v819h375v-791q0 -129 -63.5 -198.5t-192.5 -71.5q-63 -2 -117 -2q-47 -2 -94 -2h-131q-39 0 -80 2q-47 0 -98 2q-139 4 -199 68.5t-60 201.5zM293 1153l164 293h329l166 -293h-211l-114 160l-121 -160h-213z" />
<glyph unicode="&#xfc;" horiz-adv-x="1249" d="M106 270v791h375v-819h285v819h375v-791q0 -129 -63.5 -198.5t-192.5 -71.5q-63 -2 -117 -2q-47 -2 -94 -2h-131q-39 0 -80 2q-47 0 -98 2q-139 4 -199 68.5t-60 201.5zM309 1167v258h252v-258h-252zM688 1167v258h252v-258h-252z" />
<glyph unicode="&#xfd;" horiz-adv-x="1198" d="M4 1061h424l170 -725h31l172 725h393l-229 -725q-43 -135 -84 -265t-74 -231.5t-51 -163.5l-19 -63h-415l145 387q-117 0 -148 96zM493 1153l166 293h367l-326 -293h-207z" />
<glyph unicode="&#xfe;" horiz-adv-x="1247" d="M106 -387v1923h377v-475h402q135 0 195.5 -70.5t60.5 -199.5v-533q0 -137 -55.5 -197.5t-200.5 -60.5h-398v-387h-381zM479 242h287v577h-287v-577z" />
<glyph unicode="&#xff;" horiz-adv-x="1198" d="M4 1061h424l170 -725h31l172 725h393l-229 -725q-43 -135 -84 -265t-74 -231.5t-51 -163.5l-19 -63h-415l145 387q-117 0 -148 96zM313 1167v258h252v-258h-252zM692 1167v258h252v-258h-252z" />
<glyph unicode="&#x152;" horiz-adv-x="1859" d="M150 266v901q0 135 69.5 207t206.5 72h1376v-244h-465v-342h465v-244h-465v-372h463v-244h-1376q-135 0 -204.5 68.5t-69.5 197.5zM584 244h336v958h-336v-958z" />
<glyph unicode="&#x153;" horiz-adv-x="1732" d="M106 254v537q0 123 62.5 194.5t206.5 75.5h67q27 0 50.5 1t29.5 1q8 0 30.5 -1t47.5 -1h64q57 -2 95 -11.5t62.5 -25.5t37.5 -36.5t24 -43.5q10 23 24.5 43.5t37 36.5t57 26.5t85.5 10.5h70q27 0 51.5 1t30.5 1q8 0 31.5 -1t52.5 -1h70q141 -4 204.5 -67.5t63.5 -190.5 v-350h-608v-197h561v-256h-524q-53 0 -88 9t-58.5 24.5t-37 35t-21.5 40.5q-10 -20 -23.5 -40t-36 -34.5t-57.5 -23.5t-88 -11q-41 -2 -74 -2q-29 -2 -55 -2h-66q-23 0 -47 2q-31 0 -65 2q-141 4 -204 66.5t-63 187.5zM463 221h258v617h-258v-617zM1044 608h269v230h-269 v-230z" />
<glyph unicode="&#x178;" horiz-adv-x="1153" d="M2 1446h381l186 -647h23l194 647h365l-356 -1028v-418h-437v418zM271 1552v260h252v-260h-252zM650 1552v260h252v-260h-252z" />
<glyph unicode="&#x2c6;" horiz-adv-x="843" d="M92 1153l164 293h330l166 -293h-211l-115 160l-121 -160h-213z" />
<glyph unicode="&#x2dc;" horiz-adv-x="843" d="M92 1190v156q25 31 65 55t91 24q39 0 76.5 -12t74.5 -27.5t71 -27.5t67 -12q49 0 109.5 17t107.5 60v-161q-41 -55 -98.5 -77t-116.5 -22q-41 0 -79 12.5t-75 28t-74 27.5t-75 12q-29 0 -53.5 -8t-45.5 -18q-23 -12 -45 -27z" />
<glyph unicode="&#x2000;" horiz-adv-x="962" />
<glyph unicode="&#x2001;" horiz-adv-x="1925" />
<glyph unicode="&#x2002;" horiz-adv-x="962" />
<glyph unicode="&#x2003;" horiz-adv-x="1925" />
<glyph unicode="&#x2004;" horiz-adv-x="641" />
<glyph unicode="&#x2005;" horiz-adv-x="481" />
<glyph unicode="&#x2006;" horiz-adv-x="320" />
<glyph unicode="&#x2007;" horiz-adv-x="320" />
<glyph unicode="&#x2008;" horiz-adv-x="240" />
<glyph unicode="&#x2009;" horiz-adv-x="385" />
<glyph unicode="&#x200a;" horiz-adv-x="106" />
<glyph unicode="&#x2010;" horiz-adv-x="575" d="M39 383v293h500v-293h-500z" />
<glyph unicode="&#x2011;" horiz-adv-x="575" d="M39 383v293h500v-293h-500z" />
<glyph unicode="&#x2012;" horiz-adv-x="575" d="M39 383v293h500v-293h-500z" />
<glyph unicode="&#x2013;" horiz-adv-x="1042" d="M39 383v293h967v-293h-967z" />
<glyph unicode="&#x2014;" horiz-adv-x="2066" d="M39 383v293h1991v-293h-1991z" />
<glyph unicode="&#x2018;" horiz-adv-x="675" d="M63 1446h367l152 -592h-215z" />
<glyph unicode="&#x2019;" horiz-adv-x="675" d="M96 854l152 592h364l-301 -592h-215z" />
<glyph unicode="&#x201a;" horiz-adv-x="675" d="M33 -205l151 592h365l-301 -592h-215z" />
<glyph unicode="&#x201c;" horiz-adv-x="1144" d="M63 1446h367l152 -592h-215zM532 1446h365l154 -592h-215z" />
<glyph unicode="&#x201d;" horiz-adv-x="1144" d="M96 854l152 592h364l-301 -592h-215zM563 854l152 592h366l-303 -592h-215z" />
<glyph unicode="&#x201e;" horiz-adv-x="1144" d="M33 -205l151 592h365l-301 -592h-215zM500 -205l151 592h367l-303 -592h-215z" />
<glyph unicode="&#x2022;" horiz-adv-x="770" d="M139 516q0 51 19.5 98.5t52.5 81t78 54t96 20.5t96 -20.5t79 -54t53.5 -81t19.5 -98.5q0 -53 -19.5 -99t-53.5 -80t-79 -54.5t-96 -20.5t-96 20.5t-78 54.5t-52.5 80t-19.5 99z" />
<glyph unicode="&#x2026;" horiz-adv-x="1794" d="M164 0v358h362v-358h-362zM723 0v358h362v-358h-362zM1282 0v358h363v-358h-363z" />
<glyph unicode="&#x202f;" horiz-adv-x="385" />
<glyph unicode="&#x2039;" horiz-adv-x="626" d="M47 526l287 379h246l-205 -377l205 -376h-246z" />
<glyph unicode="&#x203a;" horiz-adv-x="618" d="M47 152l205 376l-205 377h246l287 -379l-287 -374h-246z" />
<glyph unicode="&#x205f;" horiz-adv-x="481" />
<glyph unicode="&#x20ac;" horiz-adv-x="1150" d="M66 479l55 139h98v113h-151l55 141h96v175q0 123 58.5 188t197.5 65h559v-221h-401v-207h389l-55 -141h-334v-113h387l-55 -139h-332v-258h401v-221h-561q-139 0 -196.5 65.5t-57.5 180.5v233h-153z" />
<glyph unicode="&#x2122;" horiz-adv-x="1660" d="M94 1296v152h559v-152h-159v-573h-242v573h-158zM729 723v725h283l94 -414h27l92 414h276v-725h-184v467h-23l-104 -467h-148l-104 469h-29v-469h-180z" />
<glyph unicode="&#x25fc;" horiz-adv-x="1064" d="M0 0v1065h1065v-1065h-1065z" />
<glyph unicode="&#xfb01;" horiz-adv-x="1298" d="M59 819v242h93v217q0 63 12 111.5t42 81t79 49t121 16.5h321v-240h-207v-235h672v-1061h-371v823h-301v-823h-368v819h-93zM819 1159v266h373v-266h-373z" />
<glyph unicode="&#xfb02;" horiz-adv-x="1325" d="M59 819v242h93v217q0 129 60 193.5t198 64.5h794v-1536h-370v1296h-314v-235h203v-242h-203v-819h-368v819h-93z" />
</font>
</defs>
</svg>
