<?xml version="1.0" standalone="no"?>
<!DOCTYPE svg PUBLIC "-//W3C//DTD SVG 1.1//EN" "http://www.w3.org/Graphics/SVG/1.1/DTD/svg11.dtd" >
<svg xmlns="http://www.w3.org/2000/svg">
<metadata></metadata>
<defs>
<font id="district-boldaltregular" horiz-adv-x="1218" >
<font-face units-per-em="2048" ascent="1659" descent="-389" />
<missing-glyph horiz-adv-x="325" />
<glyph horiz-adv-x="2048" />
<glyph horiz-adv-x="2048" />
<glyph unicode="&#xd;" horiz-adv-x="325" />
<glyph unicode=" "  horiz-adv-x="325" />
<glyph unicode="&#x09;" horiz-adv-x="325" />
<glyph unicode="&#xa0;" horiz-adv-x="325" />
<glyph unicode="!" horiz-adv-x="1021" d="M266 1446h490l-72 -928h-346zM291 0v434h440v-434h-440z" />
<glyph unicode="&#x22;" horiz-adv-x="1210" d="M225 1446h338l-43 -590h-252zM647 1446h338l-43 -590h-250z" />
<glyph unicode="#" horiz-adv-x="1208" d="M76 266v264h194l41 248h-194v264h239l43 258h217l-43 -258h193l43 258h217l-43 -258h150v-264h-195l-41 -248h195v-264h-238l-45 -266h-217l45 266h-193l-45 -266h-217l45 266h-151zM487 530h193l41 248h-193z" />
<glyph unicode="$" horiz-adv-x="1187" d="M131 799v188q0 76 9.5 134.5t40 98.5t87 60t150.5 20h90v236h170v-236h334v-262h-391v-168l253 -114q51 -23 85 -42.5t55.5 -45t31 -62.5t9.5 -92v-174q0 -98 -15.5 -162.5t-49.5 -104.5t-85 -56.5t-125 -16.5h-102v-236h-170v236h-375v262h434v193l-270 116 q-74 33 -120 80t-46 148z" />
<glyph unicode="%" horiz-adv-x="1902" d="M123 678v457q0 78 39 120.5t117 44.5q43 2 86 3.5t86 1.5q41 0 82.5 -1t82.5 -4q74 -2 115 -41.5t41 -115.5v-457q0 -76 -39 -120t-117 -46q-43 -2 -86 -3t-86 -1q-41 0 -83 1t-82 3q-156 4 -156 158zM401 678h91v465h-91v-465zM690 -78l348 1467h176l-350 -1467h-174z M1133 162v456q0 78 38.5 121t116.5 45q43 2 86 3t86 1q41 0 83 -1t83 -3q74 -2 115 -42t41 -115v-457q0 -76 -39 -120t-117 -46q-43 -2 -86 -3t-86 -1q-41 0 -83 1t-83 3q-156 4 -155 158zM1411 162h90v465h-90v-465z" />
<glyph unicode="&#x26;" horiz-adv-x="1406" d="M61 307v168q0 59 11.5 113.5t39 96.5t73.5 66.5t116 24.5h35l-35 41q-8 8 -23.5 29.5t-31 52.5t-27.5 69t-12 79v90q0 45 11 99t44 101t92.5 78t157.5 31h596v-295h-451v-107l254 -344v144h353v-260q0 -70 -25 -139.5t-70 -122.5l234 -322h-399l-68 104 q-74 -74 -143.5 -89t-128.5 -15h-297q-98 0 -157.5 30.5t-92.5 77t-44.5 99.5t-11.5 100zM473 338h205q14 0 29.5 2t27.5 6l-237 316h-25v-324z" />
<glyph unicode="'" horiz-adv-x="788" d="M225 1446h338l-43 -590h-252z" />
<glyph unicode="(" horiz-adv-x="868" d="M164 741q0 313 144.5 556t389.5 413l109 -86q-162 -166 -260 -389t-98 -492q0 -268 98 -493t260 -391l-109 -86q-246 170 -390 412.5t-144 555.5z" />
<glyph unicode=")" horiz-adv-x="868" d="M61 -141q162 166 260.5 391t98.5 493t-98.5 491.5t-260.5 389.5l109 86q248 -178 391.5 -417t143.5 -552t-144.5 -555.5t-390.5 -412.5z" />
<glyph unicode="*" horiz-adv-x="1024" d="M131 1098l49 178l248 -84l-4 258h194l-6 -262l242 86l57 -174l-264 -62l176 -202l-147 -113l-154 221l-160 -221l-145 111l168 196z" />
<glyph unicode="+" horiz-adv-x="1208" d="M63 348v357h359v354h360v-354h363v-357h-361v-350h-360v350h-361z" />
<glyph unicode="," horiz-adv-x="722" d="M35 -358l162 641h467l-332 -641h-297z" />
<glyph unicode="-" horiz-adv-x="591" d="M35 350v357h522v-357h-522z" />
<glyph unicode="." horiz-adv-x="694" d="M127 0v434h440v-434h-440z" />
<glyph unicode="/" horiz-adv-x="839" d="M4 -92l617 1628h215l-617 -1628h-215z" />
<glyph unicode="0" horiz-adv-x="1185" d="M82 213v621q0 45 11 87t36 72.5t66 49t100 20.5l311 8l285 -8q111 -4 162 -62.5t51 -154.5v-623q0 -109 -55.5 -166t-157.5 -61l-293 -8l-303 8q-113 4 -163 55t-50 162zM512 203h160v651h-160v-651z" />
<glyph unicode="1" horiz-adv-x="1060" d="M41 0v264h324v469l-310 -96v266l463 158h270v-797h269v-264h-1016z" />
<glyph unicode="2" horiz-adv-x="1085" d="M59 0v180l496 400q27 20 47.5 58t20.5 103v107h-109v-199h-405v189q0 47 20.5 88t55 70.5t80.5 47t95 19.5q43 0 80 2q33 2 68 3t57 1q29 0 68 -1t79 -2t75.5 -2t58.5 -1q94 -4 149.5 -59.5t55.5 -153.5v-117q0 -72 -22.5 -123t-96.5 -106l-326 -242h449v-262h-996z" />
<glyph unicode="3" horiz-adv-x="1058" d="M63 23h463v282h-389v244h379v246h-438v266h579q145 0 225.5 -64.5t80.5 -201.5v-129q0 -104 -46.5 -170t-162.5 -88q63 -6 108 -20.5t73 -45.5t40 -81t12 -126v-100q0 -131 -70.5 -204t-226.5 -73h-627v265z" />
<glyph unicode="4" horiz-adv-x="1189" d="M43 0v242l330 819h622v-799h174v-262h-174v-242h-436v242h-516zM379 254h231v541h-35z" />
<glyph unicode="5" horiz-adv-x="1085" d="M100 20h494v275h-295q-102 0 -147.5 36t-45.5 134q0 10 1.5 21.5t1.5 15.5l36 559h813v-268h-452l-17 -238h248q141 0 209 -61.5t68 -219.5v-241q0 -131 -62.5 -204t-220.5 -73h-631v264z" />
<glyph unicode="6" horiz-adv-x="1138" d="M82 236v786q0 131 58.5 204.5t189.5 73.5h690v-264h-508v-239h319q135 0 190.5 -64.5t55.5 -200.5v-296q0 -98 -55 -165t-150 -71q-23 0 -60.5 -1t-79.5 -2t-83 -2t-69 -1q-29 0 -70 1t-83 2t-80 2t-60 1q-94 4 -149.5 70.5t-55.5 165.5zM510 248h139v309h-139v-309z" />
<glyph unicode="7" horiz-adv-x="1085" d="M45 557v504h1018v-225l-342 -813h217v-265h-875v265h216l333 772h-206v-238h-361z" />
<glyph unicode="8" horiz-adv-x="1171" d="M72 233v138q0 137 55 200.5t184 73.5q-111 18 -154.5 77.5t-43.5 170.5v172q0 49 16 91t45 75t68 51t86 18q51 0 98 3q41 2 84 3t72 1t63 -2l72 -2q37 0 70.5 -1.5t56.5 -1.5q94 -4 154.5 -70.5t60.5 -164.5v-172q0 -111 -45 -170t-156 -78q129 -10 185.5 -73.5 t56.5 -200.5v-138q0 -49 -19.5 -91t-51.5 -73.5t-75 -50t-90 -20.5q-23 0 -58.5 -1t-74.5 -1l-76 -2q-37 -2 -65 -2q-29 0 -68 1t-79 2t-76.5 2t-59.5 1q-47 2 -90 20.5t-74.5 50t-51 73.5t-19.5 91zM494 246h184v309h-184v-309zM506 778h160v266h-160v-266z" />
<glyph unicode="9" horiz-adv-x="1124" d="M53 506v317q0 98 55.5 166t149.5 72q23 0 60.5 1t79.5 2t83 2t70 1t70 -1t82.5 -2t79.5 -2t61 -1q94 -4 149.5 -71.5t55.5 -166.5v-786q0 -131 -58.5 -205t-189.5 -74h-690v265h507v219h-319q-135 0 -190.5 64.5t-55.5 199.5zM481 481h140v330h-140v-330z" />
<glyph unicode=":" horiz-adv-x="731" d="M150 0v434h440v-434h-440zM150 627v434h440v-434h-440z" />
<glyph unicode=";" horiz-adv-x="712" d="M35 -356l162 641h467l-332 -641h-297zM172 629v432h440v-432h-440z" />
<glyph unicode="&#x3c;" horiz-adv-x="1245" d="M82 356v349l1081 374v-415l-559 -132l559 -133v-417z" />
<glyph unicode="=" horiz-adv-x="1208" d="M63 92v354h1082v-354h-1082zM63 618v355h1082v-355h-1082z" />
<glyph unicode="&#x3e;" horiz-adv-x="1245" d="M82 -20v417l561 133l-561 132v415l1081 -375v-348z" />
<glyph unicode="?" horiz-adv-x="1105" d="M121 1151v295h598q111 0 175 -14.5t98 -47t43 -84t9 -124.5v-117q0 -45 -7 -75t-25.5 -53.5t-47 -46t-71.5 -48.5l-203 -129l-10 -189h-432l-4 184q0 33 4 53.5t16 37t36 33t60 40.5l207 133v152h-446zM246 0v436h440v-436h-440z" />
<glyph unicode="@" horiz-adv-x="1884" d="M106 629q0 188 68 349t188.5 279.5t285.5 185t362 66.5q190 0 333.5 -56t240.5 -151.5t145.5 -222.5t48.5 -266q0 -324 -154 -477.5t-467 -153.5h-420q-29 0 -63.5 11.5t-63 40t-48 76.5t-19.5 122v70q0 74 19.5 120t48 72.5t63.5 36.5t63 10h277v107h-385v213h504 q63 0 101 -23.5t58.5 -58.5t27.5 -76t7 -76v-419q0 -23 8 -31t31 -8q45 0 86 22.5t71.5 72.5t49 130t18.5 197q0 127 -44 229t-122.5 175t-184 112t-228.5 39q-152 0 -282 -58.5t-227 -159t-152.5 -231.5t-55.5 -279q0 -150 58.5 -278.5t158.5 -224t232.5 -150.5t279.5 -55 q168 0 321.5 70.5t256.5 199.5l135 -84q-115 -180 -303.5 -268t-413.5 -88q-207 0 -376 65.5t-288.5 182t-184.5 280.5t-65 361zM846 397h172v156h-172v-156z" />
<glyph unicode="A" horiz-adv-x="1409" d="M4 0l258 1270q12 66 33.5 101.5t53.5 52t73 19.5t94 3h402q57 0 96 -6t64.5 -25.5t40 -55.5t26.5 -93l260 -1266h-531l-40 293h-273l-41 -293h-516zM604 608h187l-76 522h-35z" />
<glyph unicode="B" horiz-adv-x="1439" d="M102 0v1446h889q80 0 144.5 -12.5t108.5 -45t67.5 -90t23.5 -147.5v-143q0 -45 -6 -91.5t-27.5 -86t-63.5 -69.5t-110 -40q63 -6 110.5 -19.5t78.5 -44t46 -86t15 -145.5v-119q0 -137 -70.5 -222t-234.5 -85h-971zM643 270h199v338h-199v-338zM643 874h188v302h-188v-302 z" />
<glyph unicode="C" horiz-adv-x="1069" d="M92 293v848q0 45 11.5 99t44 99t92 76t157.5 31h619v-291h-367v-864h367v-291h-619q-98 0 -157.5 29.5t-92 73.5t-44 95.5t-11.5 94.5z" />
<glyph unicode="D" horiz-adv-x="1462" d="M102 0v1446h963q45 0 98.5 -10.5t99.5 -41t76.5 -89t30.5 -154.5v-844q0 -47 -11 -100t-44 -99.5t-92.5 -77t-157.5 -30.5h-963zM649 293h174v858h-174v-858z" />
<glyph unicode="E" horiz-adv-x="1091" d="M102 0v1446h930v-293h-379v-266h379v-293h-379v-301h379v-293h-930z" />
<glyph unicode="F" horiz-adv-x="1073" d="M102 0v1446h926v-293h-375v-266h375v-293h-375v-594h-551z" />
<glyph unicode="G" horiz-adv-x="1378" d="M92 256v881q0 162 76 235.5t229 73.5h850v-293h-606v-862h131v512h524v-547q0 -49 -13 -94t-45 -81t-82 -57.5t-124 -23.5q-72 -2 -135 -4q-53 -2 -109 -2h-167q-57 0 -117 2q-68 2 -146 4q-68 2 -118 23.5t-82.5 57.5t-49 81t-16.5 94z" />
<glyph unicode="H" horiz-adv-x="1488" d="M102 0v1448h551v-547h183v547h550v-1448h-550v580h-183v-580h-551z" />
<glyph unicode="I" horiz-adv-x="729" d="M102 0v1446h525v-1446h-525z" />
<glyph unicode="J" horiz-adv-x="874" d="M18 0v293h222v1153h551v-1139q0 -47 -11.5 -100t-44.5 -99.5t-92 -77t-158 -30.5h-467z" />
<glyph unicode="K" horiz-adv-x="1454" d="M102 0v1446h543v-1446h-543zM672 715l233 731h525l-256 -670l276 -776h-573z" />
<glyph unicode="L" horiz-adv-x="1015" d="M102 0v1446h551v-1153h359v-293h-910z" />
<glyph unicode="M" horiz-adv-x="1726" d="M102 0v1446h590l160 -721h22l160 721h590v-1446h-426v809h-16l-176 -809h-285l-176 809h-17v-809h-426z" />
<glyph unicode="N" horiz-adv-x="1488" d="M102 0v1446h590l207 -721h21v721h466v-1446h-550l-248 809h-17v-809h-469z" />
<glyph unicode="O" horiz-adv-x="1454" d="M92 252v942q0 49 16.5 93t49 79t83 56.5t117.5 23.5q14 2 70.5 3t120 2t117 2t61.5 1t61.5 -1t117 -2t119.5 -2t71 -3q68 -2 118 -23.5t82.5 -56.5t49 -79t16.5 -93v-942q0 -49 -15.5 -94t-46 -79t-80 -55.5t-116.5 -23.5q-16 -2 -72.5 -3t-121 -2t-119 -2t-64.5 -1h-35 q-27 0 -65.5 1t-82.5 1t-84 1t-70 2t-40 1q-135 4 -196.5 75.5t-61.5 178.5zM641 293h172v858h-172v-858z" />
<glyph unicode="P" horiz-adv-x="1386" d="M102 0v1446h934q158 0 228.5 -74t70.5 -221v-311q0 -135 -72.5 -221.5t-232.5 -86.5h-379v-532h-549zM649 813h193v352h-193v-352z" />
<glyph unicode="Q" horiz-adv-x="1454" d="M92 293v901q0 49 16.5 93t49 79t83 56.5t117.5 23.5q8 2 37 3t67 2t80 1t79.5 1t66.5 1h39q14 0 71.5 -1t121 -2t118 -2t62.5 -3q66 -2 116 -23.5t82.5 -56.5t49 -79t16.5 -93v-887q0 -158 -65.5 -231.5t-223.5 -75.5l-180 -4l121 -209h-398l-90 209l-174 4 q-139 4 -200.5 71.5t-61.5 221.5zM641 293h172v858h-172v-858z" />
<glyph unicode="R" horiz-adv-x="1460" d="M102 0v1446h977q74 0 131.5 -23.5t96.5 -63.5t58 -93.5t19 -114.5v-143q0 -47 -7 -92.5t-33.5 -84t-80 -67.5t-143.5 -43q66 -8 112 -25.5t74.5 -51.5t44 -88t19.5 -138l25 -418h-549l-29 498q-4 59 -23.5 77.5t-78.5 18.5h-66v-594h-547zM649 862h178v314h-178v-314z " />
<glyph unicode="S" horiz-adv-x="1179" d="M70 887v231q0 72 13 132.5t50 103.5t100.5 67.5t161.5 24.5h664v-295h-438v-182l284 -117q57 -25 96 -47.5t62.5 -53t34 -73.5t10.5 -111v-192q0 -94 -16.5 -164t-54.5 -117t-102.5 -70.5t-160.5 -23.5h-700v293h487v211l-303 129q-41 18 -76 38.5t-59.5 50.5t-38.5 69.5 t-14 95.5z" />
<glyph unicode="T" horiz-adv-x="1116" d="M6 1151v295h1104v-295h-279v-1151h-550v1151h-275z" />
<glyph unicode="U" horiz-adv-x="1478" d="M102 283v1163h551v-1153h170v1153h553v-1170q0 -43 -9 -90t-38 -88t-81 -68.5t-138 -29.5q-92 -2 -168 -4q-66 -2 -126 -3t-79 -1h-59q-43 0 -96.5 1t-110.5 3t-102 4q-84 4 -136.5 30.5t-81 66.5t-39 88t-10.5 98z" />
<glyph unicode="V" horiz-adv-x="1409" d="M4 1446h526l162 -1120h31l166 1120h516l-299 -1446h-801z" />
<glyph unicode="W" horiz-adv-x="2095" d="M10 1446h529l161 -918h33l131 918h430l113 -918h33l162 918h483l-295 -1446h-623l-104 891h-10l-129 -891h-609z" />
<glyph unicode="X" horiz-adv-x="1335" d="M4 -2l203 733l-152 715h502l119 -588h26l91 588h491l-121 -715l168 -733h-549l-94 575h-33l-131 -575h-520z" />
<glyph unicode="Y" horiz-adv-x="1146" d="M-20 1446h462l125 -602h23l129 602h448l-317 -1065v-381h-553v381z" />
<glyph unicode="Z" horiz-adv-x="1062" d="M29 0v274l387 877h-346v295h950v-264l-391 -889h385v-293h-985z" />
<glyph unicode="[" horiz-adv-x="798" d="M184 -188v1851h504v-143h-242v-1561h250v-147h-512z" />
<glyph unicode="\" horiz-adv-x="839" d="M4 1536h215l617 -1628h-215z" />
<glyph unicode="]" horiz-adv-x="798" d="M102 -41h250v1561h-241v143h503v-1851h-512v147z" />
<glyph unicode="^" d="M59 500l375 946h350l373 -946h-418l-133 483l-129 -483h-418z" />
<glyph unicode="_" horiz-adv-x="1024" d="M20 -74h984v-313h-984v313z" />
<glyph unicode="`" horiz-adv-x="819" d="M141 1446h414l166 -293h-254z" />
<glyph unicode="a" d="M29 291v88q0 92 29.5 149.5t73.5 89t95.5 42t94.5 10.5h342v114h-539v277h719q92 0 149.5 -30t88 -74t41 -95t10.5 -94v-518q0 -84 -3.5 -132t-15.5 -73t-36.5 -33t-67.5 -12q-23 -2 -74 -3t-109 -1h-264q-45 0 -92 1t-90 2t-66 1q-137 4 -211.5 74.5t-74.5 216.5z M483 274h189v144h-189v-144z" />
<glyph unicode="b" horiz-adv-x="1265" d="M84 0v1536h463v-475h346q156 0 223.5 -82t67.5 -211v-461q0 -63 -15.5 -119.5t-50.5 -97.5t-90 -65.5t-135 -24.5h-809zM543 293h172v475h-172v-475z" />
<glyph unicode="c" horiz-adv-x="1003" d="M82 291v479q0 92 29.5 149.5t73.5 89t95.5 42t94.5 10.5h590v-316h-416v-430h416v-315h-590q-43 0 -94.5 10t-95.5 42t-73.5 89.5t-29.5 149.5z" />
<glyph unicode="d" horiz-adv-x="1273" d="M82 307v461q0 43 10 94t42 95t89.5 74t149.5 30h348v475h461v-1536h-809q-92 0 -149.5 30.5t-89.5 77t-42 99.5t-10 100zM551 293h174v475h-174v-475z" />
<glyph unicode="e" d="M82 293v461q0 145 73.5 224t213.5 83q23 0 55.5 1t67 2t69.5 1h127q35 0 70 -1t67.5 -2t55.5 -1q139 -4 210.5 -81t71.5 -212v-315h-612v-140h563v-313h-741q-92 0 -149.5 29.5t-89.5 73.5t-42 95.5t-10 94.5zM547 600h149v195h-149v-195z" />
<glyph unicode="f" horiz-adv-x="690" d="M45 768v293h66v182q0 43 10 94.5t42 95.5t89 73.5t149 29.5h342v-289h-176v-186h144v-293h-144v-768h-456v768h-66z" />
<glyph unicode="g" horiz-adv-x="1265" d="M82 319v435q0 45 10 98t42 98t89.5 76t149.5 35q100 4 159 4h199q25 0 58.5 -1t89.5 -3q45 -2 98 -12.5t98 -41t75 -88t30 -149.5v-850q0 -47 -10.5 -100t-42 -99.5t-89 -77t-149.5 -30.5h-729v301h547v113h-334q-92 0 -149.5 29.5t-89.5 73.5t-42 95t-10 94zM547 305 h174v486h-174v-486z" />
<glyph unicode="h" horiz-adv-x="1275" d="M92 0v1536h471v-475h340q145 0 218 -79t73 -214v-768h-469v766h-162v-766h-471z" />
<glyph unicode="i" horiz-adv-x="634" d="M82 0v1061h471v-1061h-471zM82 1135v311h471v-311h-471z" />
<glyph unicode="j" horiz-adv-x="638" d="M-86 -86h174v1147h465v-1141q0 -158 -61.5 -232.5t-200.5 -74.5h-377v301zM90 1135v311h463v-311h-463z" />
<glyph unicode="k" horiz-adv-x="1318" d="M92 0v1536h463v-1536h-463zM602 532l262 529h484l-281 -500l248 -561h-531z" />
<glyph unicode="l" horiz-adv-x="655" d="M92 0v1536h461v-1536h-461z" />
<glyph unicode="m" horiz-adv-x="1898" d="M82 0v768q0 59 13.5 112.5t46 93.5t89 64t142.5 23h1153q82 0 137 -22.5t89 -61.5t49.5 -92.5t15.5 -116.5v-768h-469v768h-164v-768h-469v768h-164v-768h-469z" />
<glyph unicode="n" horiz-adv-x="1265" d="M82 0v768q0 131 71.5 212t219.5 81h520q80 0 135 -22.5t90 -62.5t50.5 -93.5t15.5 -114.5v-768h-469v768h-164v-768h-469z" />
<glyph unicode="o" horiz-adv-x="1245" d="M82 291v463q0 45 10 98t42 98t89.5 76t149.5 35q100 4 155 4h197q27 0 62.5 -1t91.5 -3q45 -2 96 -12.5t92 -41t68.5 -88t27.5 -149.5v-463q0 -47 -10 -99t-42 -97t-89 -77t-150 -34q-100 -4 -155 -4h-197q-27 0 -62.5 1t-90.5 3q-47 2 -97.5 12.5t-91.5 41t-68.5 88 t-27.5 149.5zM551 293h143v475h-143v-475z" />
<glyph unicode="p" horiz-adv-x="1263" d="M82 -387v1448h809q154 0 222.5 -79t68.5 -216v-473q0 -141 -72 -217t-219 -76h-346v-387h-463zM543 293h170v477h-170v-477z" />
<glyph unicode="q" horiz-adv-x="1263" d="M82 293v461q0 139 77 223t214 84h809v-1448h-461v387h-348q-137 0 -214 67.5t-77 225.5zM551 293h172v475h-172v-475z" />
<glyph unicode="r" horiz-adv-x="811" d="M82 0v768q0 63 15.5 116.5t50 92.5t90 61.5t135.5 22.5h481v-293h-303v-768h-469z" />
<glyph unicode="s" horiz-adv-x="1087" d="M61 0v268h596v123h-315q-90 0 -145.5 21.5t-85 64.5t-40 105.5t-10.5 144.5q0 70 11.5 131.5t43 106.5t87 70.5t141.5 25.5h649v-268h-489v-123h252q90 0 145 -23.5t85 -65.5t40 -98.5t10 -124.5q0 -78 -10 -144.5t-41 -113.5t-86 -73.5t-145 -26.5h-693z" />
<glyph unicode="t" horiz-adv-x="778" d="M23 768v293h81l207 385h256v-385h181v-293h-181v-477h176v-291h-383q-125 0 -190.5 61.5t-65.5 210.5v496h-81z" />
<glyph unicode="u" horiz-adv-x="1265" d="M82 309v752h469v-768h164v768h469v-752q0 -135 -75 -220t-216 -89q-72 -2 -140.5 -3t-140.5 -1q-59 0 -119.5 1t-119.5 3q-154 4 -222.5 83t-68.5 226z" />
<glyph unicode="v" horiz-adv-x="1271" d="M4 1061h510l121 -651h31l122 651h480l-328 -1061h-608z" />
<glyph unicode="w" horiz-adv-x="2050" d="M4 1061h506l129 -680h18l185 680h397l182 -680h19l125 680h481l-328 -1061h-532l-152 575h-20l-156 -575h-526z" />
<glyph unicode="x" horiz-adv-x="1271" d="M-12 0l192 532l-143 529h477l113 -436h26l86 436h480l-127 -529l159 -532h-522l-90 418h-31l-125 -418h-495z" />
<glyph unicode="y" horiz-adv-x="1271" d="M4 1061h526l105 -651h31l106 651h496l-422 -1448h-524l141 387q-72 0 -112 28.5t-56 84.5z" />
<glyph unicode="z" horiz-adv-x="1073" d="M41 0v262l448 506h-426v293h969v-262l-452 -506h452v-293h-991z" />
<glyph unicode="{" horiz-adv-x="862" d="M123 731v47q49 0 83 29t34 80v506q0 82 8 134t35.5 82.5t79 42t137.5 11.5h239v-143h-229v-639q0 -35 -22.5 -56.5t-51.5 -31.5l-108 -39l110 -43q33 -12 52.5 -33t19.5 -55v-664h229v-147h-239q-70 0 -119 7t-81 31.5t-46 69.5t-14 123v575q0 53 -32 83t-85 30z" />
<glyph unicode="|" horiz-adv-x="638" d="M223 -389v2048h195v-2048h-195z" />
<glyph unicode="}" horiz-adv-x="862" d="M123 -41h229v664q0 35 19.5 55t52.5 33l111 43l-109 39q-29 10 -51.5 31.5t-22.5 56.5v639h-229v143h239q86 0 137.5 -11.5t79 -42t36 -82.5t8.5 -134v-506q0 -51 33.5 -80t82.5 -29v-47q-53 0 -84.5 -29.5t-31.5 -83.5v-575q0 -78 -14.5 -123t-46.5 -69.5t-81 -31.5 t-119 -7h-239v147z" />
<glyph unicode="~" horiz-adv-x="1245" d="M117 362v377q55 53 121.5 82t144.5 29q63 0 124.5 -21.5t120 -47t116 -47t112.5 -21.5q84 0 151.5 39t120.5 100v-377q-55 -53 -121.5 -81.5t-144.5 -28.5q-66 0 -126 21.5t-118.5 47t-116 47t-112.5 21.5q-84 0 -151.5 -39t-120.5 -101z" />
<glyph unicode="&#xa1;" horiz-adv-x="1021" d="M266 -387l72 928h346l72 -928h-490zM291 625v436h440v-436h-440z" />
<glyph unicode="&#xa2;" horiz-adv-x="983" d="M133 291v479q0 92 30 149.5t74 89t95 42t94 10.5h104v194h170v-194h170v-316h-335v-430h335v-315h-170v-197h-172v197h-102q-43 0 -94 10t-95 42t-74 89.5t-30 149.5z" />
<glyph unicode="&#xa3;" horiz-adv-x="1187" d="M41 0v264h164l39 309h-107v267h142l32 252q6 53 18.5 92t36 65.5t62.5 38.5t98 12h578v-264h-397l-23 -196h207v-267h-242l-37 -309h185v197h321v-461h-1077z" />
<glyph unicode="&#xa4;" horiz-adv-x="1138" d="M63 305l109 109q-109 137 -109 311t109 311l-109 109l91 90l108 -109q68 53 146.5 81t160.5 28t161 -27.5t147 -81.5l108 109l90 -90l-108 -109q109 -137 108 -311q0 -174 -108 -311l108 -109l-90 -90l-108 109q-68 -53 -147 -81t-161 -28t-160.5 27.5t-146.5 81.5 l-108 -109zM272 725q0 -63 23.5 -119.5t63.5 -98.5t95.5 -66.5t116.5 -24.5t114.5 24.5t93.5 66.5t63.5 98.5t23.5 119.5t-23.5 119.5t-63.5 98.5t-93 66.5t-115 24.5q-61 0 -116.5 -24.5t-95.5 -66.5t-63.5 -98.5t-23.5 -119.5z" />
<glyph unicode="&#xa5;" horiz-adv-x="1187" d="M23 356v150h266l-31 104h-235v150h190l-162 540h418l111 -540h22l115 540h403l-162 -540h205v-150h-248l-32 -104h280v-150h-327v-356h-498v356h-315z" />
<glyph unicode="&#xa6;" horiz-adv-x="559" d="M90 0v602h393v-602h-393zM90 846v600h393v-600h-393z" />
<glyph unicode="&#xa7;" horiz-adv-x="1206" d="M80 401v209q0 111 38 178.5t101 67.5q-6 18 -8 40t-2 42v98q0 66 10 116t40 83t83 49t137 16h578v-239h-412v-131l283 -101q61 -23 100 -50t61.5 -66t30.5 -88.5t8 -112.5v-209q0 -111 -37.5 -178.5t-101.5 -67.5q6 -18 8 -39.5t2 -42.5v-98q0 -66 -10 -115t-39.5 -81.5 t-83 -49t-137.5 -16.5h-577v238h411v131l-282 100q-61 20 -100.5 49t-62 68t-30.5 88t-8 112zM539 293l133 -51v379l-133 51v-379z" />
<glyph unicode="&#xa8;" horiz-adv-x="819" d="M63 1149v297h291v-297h-291zM481 1149v297h289v-297h-289z" />
<glyph unicode="&#xa9;" horiz-adv-x="2156" d="M207 805q0 178 67.5 330.5t183 265t270.5 176t327 63.5t324.5 -63.5t268 -176t182 -265t66.5 -330.5q0 -182 -66.5 -337t-182 -267.5t-268 -177t-324.5 -64.5t-327 64.5t-270.5 177t-183 267.5t-67.5 337zM373 805q0 -152 52 -281t144.5 -224t216 -148.5t269.5 -53.5 q143 0 266 53.5t214 148.5t143.5 224t52.5 281q0 147 -52.5 274t-143.5 221.5t-214 148.5t-266 54q-145 0 -269 -54t-216.5 -148.5t-144.5 -221.5t-52 -274zM735 528v533q0 100 47 146t146 46h401v-184h-231v-541h231v-184h-401q-100 0 -146.5 46t-46.5 138z" />
<glyph unicode="&#xaa;" horiz-adv-x="1161" d="M174 475v117h807v-117h-807zM178 889v63q0 104 55.5 158.5t157.5 54.5h250v84h-393v197h524q104 0 157.5 -53.5t53.5 -155.5v-412q0 -55 -4 -84.5t-19.5 -44t-47 -17.5t-87.5 -3q-43 -2 -84 -2h-272q-37 0 -78 2q-102 0 -157.5 54t-55.5 159zM510 877h137v104h-137v-104z " />
<glyph unicode="&#xab;" horiz-adv-x="1110" d="M41 526l238 379h313l-176 -377l176 -376h-313zM518 526l238 379h313l-176 -377l176 -376h-313z" />
<glyph unicode="&#xac;" horiz-adv-x="1206" d="M57 350v359h1082v-709h-363v350h-719z" />
<glyph unicode="&#xad;" horiz-adv-x="591" d="M35 350v357h522v-357h-522z" />
<glyph unicode="&#xae;" horiz-adv-x="1251" d="M121 1028q0 102 39 191.5t105.5 155t155.5 102t189 36.5t189.5 -36.5t156 -102t105.5 -155t39 -191.5q0 -104 -39 -193.5t-105.5 -156t-155.5 -103t-190 -36.5q-100 0 -189 36.5t-155.5 103t-105.5 156t-39 193.5zM258 1028q0 -78 26.5 -145.5t75 -116.5t113 -76.5 t137.5 -27.5q74 0 137.5 27.5t111.5 76.5t75 116.5t27 145.5q0 76 -27 142.5t-75 115.5t-111.5 77t-137.5 28t-138 -28t-112.5 -77t-75 -115.5t-26.5 -142.5zM428 813v455h281q53 0 74.5 -22.5t21.5 -69.5v-56q0 -43 -19.5 -59.5t-52.5 -20.5q35 -8 49 -26q16 -18 19 -68 l6 -133h-160l-8 164q-2 20 -8 24.5t-29 4.5h-20v-193h-154zM582 1075h67v115h-67v-115z" />
<glyph unicode="&#xaf;" horiz-adv-x="819" d="M70 1198v172h684v-172h-684z" />
<glyph unicode="&#xb0;" horiz-adv-x="1126" d="M209 965q0 74 27.5 139t74.5 113.5t111.5 76t138.5 27.5t139.5 -27.5t113.5 -77t76 -113.5t28 -138t-28 -138.5t-76 -112.5t-113.5 -76t-139.5 -28t-138.5 28t-111.5 76t-74.5 112.5t-27.5 138.5zM446 965q0 -51 30 -93.5t83 -42.5t84 42.5t31 93.5t-31 94t-84 43 t-83 -43t-30 -94z" />
<glyph unicode="&#xb1;" horiz-adv-x="1206" d="M63 0v289h1082v-289h-1082zM63 545v317h361v199h356v-199h365v-317h-363v-201h-356v201h-363z" />
<glyph unicode="&#xb2;" horiz-adv-x="819" d="M84 520v131l334 293q31 29 41 46.5t10 51.5v99h-86v-146h-260v138q0 31 8 59.5t26.5 52t46 37.5t66.5 16l162 7l152 -7q88 -4 118.5 -45t30.5 -112v-99q0 -31 -9 -57.5t-42 -58.5l-254 -248h320v-158h-664z" />
<glyph unicode="&#xb3;" horiz-adv-x="747" d="M92 520v156h270v170h-221v149h213v146h-252v157h353q98 0 142 -35.5t44 -121.5v-76q0 -139 -129 -154q66 -6 108 -33.5t42 -109.5v-84q0 -82 -39 -123t-144 -41h-387z" />
<glyph unicode="&#xb4;" horiz-adv-x="819" d="M141 1153l166 293h414l-326 -293h-254z" />
<glyph unicode="&#xb5;" horiz-adv-x="1265" d="M84 -387v1448h467v-768h164v768h469v-752q0 -53 -15.5 -108.5t-49.5 -100.5t-89 -72.5t-137 -27.5h-356v-387h-453z" />
<glyph unicode="&#xb6;" horiz-adv-x="1208" d="M131 764v242q0 88 23.5 145t64.5 90t96.5 46t120.5 13h492v-1689h-299v846h-193q-61 0 -116.5 15t-97.5 50t-66.5 94.5t-24.5 147.5zM549 721h80v321h-80v-321zM973 -389v1689h129v-1689h-129z" />
<glyph unicode="&#xb7;" horiz-adv-x="694" d="M127 309v434h440v-434h-440z" />
<glyph unicode="&#xb8;" horiz-adv-x="786" d="M92 -389l326 293h254l-166 -293h-414z" />
<glyph unicode="&#xb9;" horiz-adv-x="794" d="M121 1047v159l280 94h172v-622h150v-158h-588v158h174v426z" />
<glyph unicode="&#xba;" horiz-adv-x="1144" d="M174 475v117h807v-117h-807zM178 887v336q0 104 52.5 162.5t160.5 60.5q45 2 90 2h181q45 0 92 -2q104 -2 158.5 -55.5t54.5 -157.5v-336q0 -104 -53.5 -161.5t-159.5 -61.5q-49 -2 -97.5 -3t-97.5 -1q-41 0 -84 1t-84 3q-104 4 -158.5 56t-54.5 157zM516 883h113v354 h-113v-354z" />
<glyph unicode="&#xbb;" horiz-adv-x="1107" d="M41 152l176 376l-176 377h313l238 -379l-238 -374h-313zM518 152l176 376l-176 377h313l238 -379l-238 -374h-313z" />
<glyph unicode="&#xbc;" horiz-adv-x="1761" d="M57 1047v159l281 94h172v-622h149v-158h-587v158h174v426zM602 -78l348 1467h174l-348 -1467h-174zM991 156v143l205 481h389v-463h109v-161h-109v-156h-272v156h-322zM1200 317h146v297h-23z" />
<glyph unicode="&#xbd;" horiz-adv-x="1761" d="M68 1047v159l280 94h172v-622h150v-158h-588v158h174v426zM582 -78l348 1467h174l-348 -1467h-174zM1001 0v131l334 293q31 29 41 46t10 52v99h-86v-146h-260v137q0 31 8.5 59.5t27 52.5t46 38t66.5 16l162 6l151 -6q88 -4 119 -45t31 -112v-99q0 -31 -9.5 -57.5 t-42.5 -58.5l-253 -248h319v-158h-664z" />
<glyph unicode="&#xbe;" horiz-adv-x="1761" d="M115 520v156h270v170h-221v149h213v146h-252v157h352q98 0 142.5 -35.5t44.5 -121.5v-76q0 -139 -129 -154q66 -6 107.5 -33.5t41.5 -109.5v-84q0 -82 -39 -123t-143 -41h-387zM606 -78l348 1467h174l-348 -1467h-174zM977 156v143l207 481h387v-463h108v-161h-108v-156 h-273v156h-321zM1186 317h145v297h-22z" />
<glyph unicode="&#xbf;" horiz-adv-x="1101" d="M61 0q0 41 8.5 71.5t27 56.5t47 48.5t69.5 46.5l203 129l10 189h432l4 -148q0 -37 -2 -63.5t-11 -47t-26.5 -38t-48.5 -35.5l-235 -150v-151h442v-295h-594q-111 0 -175.5 14.5t-98 47t-43 84t-9.5 124.5v117zM420 625v436h440v-436h-440z" />
<glyph unicode="&#xc0;" horiz-adv-x="1409" d="M4 0l258 1270q12 66 33.5 101.5t53.5 52t73 19.5t94 3h402q57 0 96 -6t64.5 -25.5t40 -55.5t26.5 -93l260 -1266h-531l-40 293h-273l-41 -293h-516zM370 1831h414l166 -293h-254zM604 608h187l-76 522h-35z" />
<glyph unicode="&#xc1;" horiz-adv-x="1409" d="M4 0l258 1270q12 66 33.5 101.5t53.5 52t73 19.5t94 3h402q57 0 96 -6t64.5 -25.5t40 -55.5t26.5 -93l260 -1266h-531l-40 293h-273l-41 -293h-516zM514 1538l166 293h414l-326 -293h-254zM604 608h187l-76 522h-35z" />
<glyph unicode="&#xc2;" horiz-adv-x="1409" d="M4 0l258 1270q12 66 33.5 101.5t53.5 52t73 19.5t94 3h402q57 0 96 -6t64.5 -25.5t40 -55.5t26.5 -93l260 -1266h-531l-40 293h-273l-41 -293h-516zM344 1538l162 293h414l166 -293h-254l-113 154l-121 -154h-254zM604 608h187l-76 522h-35z" />
<glyph unicode="&#xc3;" horiz-adv-x="1409" d="M4 0l258 1270q12 66 33.5 101.5t53.5 52t73 19.5t94 3h402q57 0 96 -6t64.5 -25.5t40 -55.5t26.5 -93l260 -1266h-531l-40 293h-273l-41 -293h-516zM364 1569v176q27 31 68 57.5t94 26.5q41 0 80 -12.5t77 -27.5t73.5 -27.5t68.5 -12.5q51 0 112.5 17.5t110.5 60.5v-185 q-43 -55 -100 -78.5t-121 -23.5q-43 0 -82 12.5t-76.5 27.5t-75.5 28.5t-79 13.5q-29 0 -54.5 -8t-47.5 -19q-25 -12 -48 -26zM604 608h187l-76 522h-35z" />
<glyph unicode="&#xc4;" horiz-adv-x="1409" d="M4 0l258 1270q12 66 33.5 101.5t53.5 52t73 19.5t94 3h402q57 0 96 -6t64.5 -25.5t40 -55.5t26.5 -93l260 -1266h-531l-40 293h-273l-41 -293h-516zM354 1513v312h289v-312h-289zM604 608h187l-76 522h-35zM764 1513v312h289v-312h-289z" />
<glyph unicode="&#xc5;" horiz-adv-x="1409" d="M4 0l258 1270q12 66 33.5 101.5t53.5 52t73 19.5t94 3h402q57 0 96 -6t64.5 -25.5t40 -55.5t26.5 -93l260 -1266h-531l-40 293h-273l-41 -293h-516zM455 1661v108q0 66 35.5 110t109.5 44h41q16 0 33.5 1t27.5 1q16 0 36 -1t36 -1h37q23 0 48.5 -5t47 -21.5t34.5 -45 t13 -73.5v-109q0 -23 -5 -50.5t-21.5 -50t-45 -37.5t-73.5 -15q-23 -2 -43 -3h-125q-23 0 -45 3q-23 0 -48.5 5t-46 21.5t-33.5 44t-13 74.5zM604 608h187l-76 522h-35zM647 1661h113v115h-113v-115z" />
<glyph unicode="&#xc6;" horiz-adv-x="1619" d="M4 0l258 1270q20 96 75.5 136t178.5 40h1045v-295h-398l33 -264h365v-293h-324l45 -301h279v-293h-697l-41 293h-272l-41 -293h-506zM588 590h198l-81 559h-37z" />
<glyph unicode="&#xc7;" horiz-adv-x="1069" d="M92 293v848q0 45 11.5 99t44 99t92 76t157.5 31h619v-291h-367v-864h367v-291h-619q-98 0 -157.5 29.5t-92 73.5t-44 95.5t-11.5 94.5zM254 -389l326 293h254l-166 -293h-414z" />
<glyph unicode="&#xc8;" horiz-adv-x="1091" d="M102 0v1446h930v-293h-379v-266h379v-293h-379v-301h379v-293h-930zM178 1831h414l166 -293h-254z" />
<glyph unicode="&#xc9;" horiz-adv-x="1091" d="M102 0v1446h930v-293h-379v-266h379v-293h-379v-301h379v-293h-930zM352 1538l166 293h414l-326 -293h-254z" />
<glyph unicode="&#xca;" horiz-adv-x="1091" d="M102 0v1446h930v-293h-379v-266h379v-293h-379v-301h379v-293h-930zM209 1538l162 293h414l166 -293h-254l-113 154l-121 -154h-254z" />
<glyph unicode="&#xcb;" horiz-adv-x="1091" d="M102 0v1446h930v-293h-379v-266h379v-293h-379v-301h379v-293h-930zM217 1536v295h291v-295h-291zM631 1536v295h291v-295h-291z" />
<glyph unicode="&#xcc;" horiz-adv-x="729" d="M-60 1831h414l166 -293h-254zM102 0v1446h525v-1446h-525z" />
<glyph unicode="&#xcd;" horiz-adv-x="729" d="M102 0v1446h525v-1446h-525zM157 1538l166 293h414l-326 -293h-254z" />
<glyph unicode="&#xce;" horiz-adv-x="729" d="M-4 1538l162 293h414l166 -293h-254l-113 154l-121 -154h-254zM102 0v1446h525v-1446h-525z" />
<glyph unicode="&#xcf;" horiz-adv-x="729" d="M17 1536v295h291v-295h-291zM102 0v1446h525v-1446h-525zM430 1536v295h291v-295h-291z" />
<glyph unicode="&#xd0;" horiz-adv-x="1462" d="M-31 633v254h133v559h949q166 0 242.5 -75t76.5 -220v-844q0 -141 -73.5 -224t-231.5 -83h-963v633h-133zM647 293h176v858h-176v-264h80v-254h-80v-340z" />
<glyph unicode="&#xd1;" horiz-adv-x="1488" d="M102 0v1446h590l207 -721h21v721h466v-1446h-550l-248 809h-17v-809h-469zM432 1555v176q27 31 68 57.5t94 26.5q41 0 80 -12.5t77 -27.5t73.5 -27.5t68.5 -12.5q51 0 112.5 17.5t110.5 60.5v-185q-43 -55 -100 -78.5t-121 -23.5q-43 0 -82 12.5t-76.5 27.5t-75.5 28.5 t-79 13.5q-29 0 -54.5 -8t-47.5 -19q-25 -12 -48 -26z" />
<glyph unicode="&#xd2;" horiz-adv-x="1454" d="M92 252v942q0 49 16.5 93t49 79t83 56.5t117.5 23.5q14 2 70.5 3t120 2t117 2t61.5 1t61.5 -1t117 -2t119.5 -2t71 -3q68 -2 118 -23.5t82.5 -56.5t49 -79t16.5 -93v-942q0 -49 -15.5 -94t-46 -79t-80 -55.5t-116.5 -23.5q-16 -2 -72.5 -3t-121 -2t-119 -2t-64.5 -1h-35 q-27 0 -65.5 1t-82.5 1t-84 1t-70 2t-40 1q-135 4 -196.5 75.5t-61.5 178.5zM309 1831h414l166 -293h-254zM641 293h172v858h-172v-858z" />
<glyph unicode="&#xd3;" horiz-adv-x="1454" d="M92 252v942q0 49 16.5 93t49 79t83 56.5t117.5 23.5q14 2 70.5 3t120 2t117 2t61.5 1t61.5 -1t117 -2t119.5 -2t71 -3q68 -2 118 -23.5t82.5 -56.5t49 -79t16.5 -93v-942q0 -49 -15.5 -94t-46 -79t-80 -55.5t-116.5 -23.5q-16 -2 -72.5 -3t-121 -2t-119 -2t-64.5 -1h-35 q-27 0 -65.5 1t-82.5 1t-84 1t-70 2t-40 1q-135 4 -196.5 75.5t-61.5 178.5zM563 1538l166 293h414l-326 -293h-254zM641 293h172v858h-172v-858z" />
<glyph unicode="&#xd4;" horiz-adv-x="1454" d="M92 252v942q0 49 16.5 93t49 79t83 56.5t117.5 23.5q14 2 70.5 3t120 2t117 2t61.5 1t61.5 -1t117 -2t119.5 -2t71 -3q68 -2 118 -23.5t82.5 -56.5t49 -79t16.5 -93v-942q0 -49 -15.5 -94t-46 -79t-80 -55.5t-116.5 -23.5q-16 -2 -72.5 -3t-121 -2t-119 -2t-64.5 -1h-35 q-27 0 -65.5 1t-82.5 1t-84 1t-70 2t-40 1q-135 4 -196.5 75.5t-61.5 178.5zM356 1538l162 293h414l166 -293h-254l-113 154l-121 -154h-254zM641 293h172v858h-172v-858z" />
<glyph unicode="&#xd5;" horiz-adv-x="1454" d="M92 252v942q0 49 16.5 93t49 79t83 56.5t117.5 23.5q14 2 70.5 3t120 2t117 2t61.5 1t61.5 -1t117 -2t119.5 -2t71 -3q68 -2 118 -23.5t82.5 -56.5t49 -79t16.5 -93v-942q0 -49 -15.5 -94t-46 -79t-80 -55.5t-116.5 -23.5q-16 -2 -72.5 -3t-121 -2t-119 -2t-64.5 -1h-35 q-27 0 -65.5 1t-82.5 1t-84 1t-70 2t-40 1q-135 4 -196.5 75.5t-61.5 178.5zM401 1569v176q27 31 68 57.5t94 26.5q41 0 80 -12.5t77 -27.5t73.5 -27.5t68.5 -12.5q51 0 112.5 17.5t110.5 60.5v-185q-43 -55 -100 -78.5t-121 -23.5q-43 0 -82 12.5t-76.5 27.5t-75.5 28.5 t-79 13.5q-29 0 -54.5 -8t-47.5 -19q-25 -12 -48 -26zM641 293h172v858h-172v-858z" />
<glyph unicode="&#xd6;" horiz-adv-x="1454" d="M92 252v942q0 49 16.5 93t49 79t83 56.5t117.5 23.5q14 2 70.5 3t120 2t117 2t61.5 1t61.5 -1t117 -2t119.5 -2t71 -3q68 -2 118 -23.5t82.5 -56.5t49 -79t16.5 -93v-942q0 -49 -15.5 -94t-46 -79t-80 -55.5t-116.5 -23.5q-16 -2 -72.5 -3t-121 -2t-119 -2t-64.5 -1h-35 q-27 0 -65.5 1t-82.5 1t-84 1t-70 2t-40 1q-135 4 -196.5 75.5t-61.5 178.5zM379 1536v295h291v-295h-291zM641 293h172v858h-172v-858zM795 1536v295h291v-295h-291z" />
<glyph unicode="&#xd7;" d="M80 238l289 286l-287 287l256 256l287 -287l290 293l254 -254l-290 -291l284 -284l-256 -254l-284 284l-289 -290z" />
<glyph unicode="&#xd8;" horiz-adv-x="1468" d="M92 293v858q0 147 70.5 219t228.5 76q59 0 119 2q51 2 107.5 3t99.5 1h45q16 0 29.5 -1t28 -2t40.5 -1l84 221h250l-92 -225q74 0 124 -20.5t81.5 -56.5t45 -85t13.5 -104v-889q0 -152 -74.5 -218.5t-230.5 -70.5q-63 -2 -123 -4q-51 -2 -104 -2h-123q-16 0 -30.5 1 t-31 2t-41.5 1l-82 -221h-252l88 225q-145 0 -207.5 79t-62.5 212zM641 293h174v858h-174v-858z" />
<glyph unicode="&#xd9;" horiz-adv-x="1478" d="M102 283v1163h551v-1153h170v1153h553v-1170q0 -43 -9 -90t-38 -88t-81 -68.5t-138 -29.5q-92 -2 -168 -4q-66 -2 -126 -3t-79 -1h-59q-43 0 -96.5 1t-110.5 3t-102 4q-84 4 -136.5 30.5t-81 66.5t-39 88t-10.5 98zM317 1831h414l166 -293h-254z" />
<glyph unicode="&#xda;" horiz-adv-x="1478" d="M102 283v1163h551v-1153h170v1153h553v-1170q0 -43 -9 -90t-38 -88t-81 -68.5t-138 -29.5q-92 -2 -168 -4q-66 -2 -126 -3t-79 -1h-59q-43 0 -96.5 1t-110.5 3t-102 4q-84 4 -136.5 30.5t-81 66.5t-39 88t-10.5 98zM602 1538l166 293h414l-326 -293h-254z" />
<glyph unicode="&#xdb;" horiz-adv-x="1478" d="M102 283v1163h551v-1153h170v1153h553v-1170q0 -43 -9 -90t-38 -88t-81 -68.5t-138 -29.5q-92 -2 -168 -4q-66 -2 -126 -3t-79 -1h-59q-43 0 -96.5 1t-110.5 3t-102 4q-84 4 -136.5 30.5t-81 66.5t-39 88t-10.5 98zM370 1538l162 293h414l166 -293h-254l-113 154 l-121 -154h-254z" />
<glyph unicode="&#xdc;" horiz-adv-x="1478" d="M102 283v1163h551v-1153h170v1153h553v-1170q0 -43 -9 -90t-38 -88t-81 -68.5t-138 -29.5q-92 -2 -168 -4q-66 -2 -126 -3t-79 -1h-59q-43 0 -96.5 1t-110.5 3t-102 4q-84 4 -136.5 30.5t-81 66.5t-39 88t-10.5 98zM387 1536v295h291v-295h-291zM803 1536v295h291v-295 h-291z" />
<glyph unicode="&#xdd;" horiz-adv-x="1146" d="M-20 1446h462l125 -602h23l129 602h448l-317 -1065v-381h-553v381zM395 1538l166 293h414l-326 -293h-254z" />
<glyph unicode="&#xde;" horiz-adv-x="1382" d="M102 0v1446h543v-168h385q72 0 129.5 -14.5t96 -49t59 -92t20.5 -141.5v-311q0 -82 -22.5 -140.5t-63.5 -95.5t-96 -54.5t-123 -17.5h-381v-362h-547zM649 655h193v326h-193v-326z" />
<glyph unicode="&#xdf;" horiz-adv-x="1253" d="M82 0v1231q0 162 65.5 231.5t227.5 73.5q53 2 105 4t106 2q53 0 108.5 -2t108.5 -4q150 -4 227.5 -70.5t77.5 -222.5v-153q0 -111 -48 -165.5t-159 -72.5q158 -8 219.5 -88t61.5 -232v-225q0 -307 -305 -307h-259v270h115v455h-115v270h74v273h-160v-1268h-450z" />
<glyph unicode="&#xe0;" d="M29 291v88q0 92 29.5 149.5t73.5 89t95.5 42t94.5 10.5h342v114h-539v277h719q92 0 149.5 -30t88 -74t41 -95t10.5 -94v-518q0 -84 -3.5 -132t-15.5 -73t-36.5 -33t-67.5 -12q-23 -2 -74 -3t-109 -1h-264q-45 0 -92 1t-90 2t-66 1q-137 4 -211.5 74.5t-74.5 216.5z M219 1448h413l166 -293h-254zM483 274h189v144h-189v-144z" />
<glyph unicode="&#xe1;" d="M29 291v88q0 92 29.5 149.5t73.5 89t95.5 42t94.5 10.5h342v114h-539v277h719q92 0 149.5 -30t88 -74t41 -95t10.5 -94v-518q0 -84 -3.5 -132t-15.5 -73t-36.5 -33t-67.5 -12q-23 -2 -74 -3t-109 -1h-264q-45 0 -92 1t-90 2t-66 1q-137 4 -211.5 74.5t-74.5 216.5z M387 1155l166 293h413l-325 -293h-254zM483 274h189v144h-189v-144z" />
<glyph unicode="&#xe2;" d="M29 291v88q0 92 29.5 149.5t73.5 89t95.5 42t94.5 10.5h342v114h-539v277h719q92 0 149.5 -30t88 -74t41 -95t10.5 -94v-518q0 -84 -3.5 -132t-15.5 -73t-36.5 -33t-67.5 -12q-23 -2 -74 -3t-109 -1h-264q-45 0 -92 1t-90 2t-66 1q-137 4 -211.5 74.5t-74.5 216.5z M248 1155l162 293h413l166 -293h-254l-112 154l-121 -154h-254zM483 274h189v144h-189v-144z" />
<glyph unicode="&#xe3;" d="M29 291v88q0 92 29.5 149.5t73.5 89t95.5 42t94.5 10.5h342v114h-539v277h719q92 0 149.5 -30t88 -74t41 -95t10.5 -94v-518q0 -84 -3.5 -132t-15.5 -73t-36.5 -33t-67.5 -12q-23 -2 -74 -3t-109 -1h-264q-45 0 -92 1t-90 2t-66 1q-137 4 -211.5 74.5t-74.5 216.5z M264 1169v176q27 31 67.5 57.5t94.5 26.5q41 0 79.5 -12t76.5 -27.5t74 -27.5t69 -12q51 0 112.5 17t110.5 60v-184q-43 -55 -100.5 -78.5t-120.5 -23.5q-43 0 -82 12t-77 27.5t-76 29t-79 13.5q-29 0 -54.5 -8.5t-47.5 -18.5q-25 -12 -47 -27zM483 274h189v144h-189v-144z " />
<glyph unicode="&#xe4;" d="M29 291v88q0 92 29.5 149.5t73.5 89t95.5 42t94.5 10.5h342v114h-539v277h719q92 0 149.5 -30t88 -74t41 -95t10.5 -94v-518q0 -84 -3.5 -132t-15.5 -73t-36.5 -33t-67.5 -12q-23 -2 -74 -3t-109 -1h-264q-45 0 -92 1t-90 2t-66 1q-137 4 -211.5 74.5t-74.5 216.5z M254 1135v311h291v-311h-291zM483 274h189v144h-189v-144zM667 1135v311h291v-311h-291z" />
<glyph unicode="&#xe5;" d="M29 291v88q0 92 29.5 149.5t73.5 89t95.5 42t94.5 10.5h342v114h-539v277h719q92 0 149.5 -30t88 -74t41 -95t10.5 -94v-518q0 -84 -3.5 -132t-15.5 -73t-36.5 -33t-67.5 -12q-23 -2 -74 -3t-109 -1h-264q-45 0 -92 1t-90 2t-66 1q-137 4 -211.5 74.5t-74.5 216.5z M360 1270v108q0 23 5.5 49.5t21.5 49t44 38t75 17.5q51 2 67 2h70q18 0 74 -2q23 0 48.5 -6t47 -21.5t34.5 -44t13 -74.5v-108q0 -23 -5 -49.5t-21.5 -49t-45 -38t-73.5 -17.5q-51 -2 -70 -2h-72q-16 0 -71 2q-23 0 -48.5 6.5t-46 21.5t-34 43t-13.5 75zM483 274h189v144 h-189v-144zM553 1270h113v114h-113v-114z" />
<glyph unicode="&#xe6;" horiz-adv-x="1652" d="M29 291v88q0 143 75.5 217t217.5 74h307v114h-504v277h487q80 0 136.5 -33t85.5 -110q16 70 77.5 106.5t126.5 36.5q29 0 54 2q23 0 46 1t42 1q16 0 38.5 -1t45.5 -1q23 -2 49 -2q141 0 212.5 -75t71.5 -218v-315h-559v-140h510v-313h-508q-72 0 -123 30.5t-77 96.5 q-29 -53 -77 -88t-108 -39q-41 -2 -79.5 -4t-79.5 -2q-43 0 -87 2t-87 4q-139 4 -216 73.5t-77 217.5zM471 274h154v144h-154v-144zM1030 623h164v172h-164v-172z" />
<glyph unicode="&#xe7;" horiz-adv-x="1003" d="M82 291v479q0 92 29.5 149.5t73.5 89t95.5 42t94.5 10.5h590v-316h-416v-430h416v-315h-590q-43 0 -94.5 10t-95.5 42t-73.5 89.5t-29.5 149.5zM217 -389l326 293h254l-166 -293h-414z" />
<glyph unicode="&#xe8;" d="M82 293v461q0 145 73.5 224t213.5 83q23 0 55.5 1t67 2t69.5 1h127q35 0 70 -1t67.5 -2t55.5 -1q139 -4 210.5 -81t71.5 -212v-315h-612v-140h563v-313h-741q-92 0 -149.5 29.5t-89.5 73.5t-42 95.5t-10 94.5zM209 1448h413l166 -293h-254zM547 600h149v195h-149v-195z " />
<glyph unicode="&#xe9;" d="M82 293v461q0 145 73.5 224t213.5 83q23 0 55.5 1t67 2t69.5 1h127q35 0 70 -1t67.5 -2t55.5 -1q139 -4 210.5 -81t71.5 -212v-315h-612v-140h563v-313h-741q-92 0 -149.5 29.5t-89.5 73.5t-42 95.5t-10 94.5zM428 1155l166 293h413l-325 -293h-254zM547 600h149v195 h-149v-195z" />
<glyph unicode="&#xea;" d="M82 293v461q0 145 73.5 224t213.5 83q23 0 55.5 1t67 2t69.5 1h127q35 0 70 -1t67.5 -2t55.5 -1q139 -4 210.5 -81t71.5 -212v-315h-612v-140h563v-313h-741q-92 0 -149.5 29.5t-89.5 73.5t-42 95.5t-10 94.5zM252 1155l162 293h413l166 -293h-254l-112 154l-121 -154 h-254zM547 600h149v195h-149v-195z" />
<glyph unicode="&#xeb;" d="M82 293v461q0 145 73.5 224t213.5 83q23 0 55.5 1t67 2t69.5 1h127q35 0 70 -1t67.5 -2t55.5 -1q139 -4 210.5 -81t71.5 -212v-315h-612v-140h563v-313h-741q-92 0 -149.5 29.5t-89.5 73.5t-42 95.5t-10 94.5zM272 1135v311h291v-311h-291zM547 600h149v195h-149v-195z M688 1135v311h291v-311h-291z" />
<glyph unicode="&#xec;" horiz-adv-x="634" d="M-96 1448h413l166 -293h-254zM82 0v1061h471v-1061h-471z" />
<glyph unicode="&#xed;" horiz-adv-x="634" d="M82 0v1061h471v-1061h-471zM160 1155l166 293h413l-325 -293h-254z" />
<glyph unicode="&#xee;" horiz-adv-x="634" d="M-51 1155l162 293h413l166 -293h-254l-112 154l-121 -154h-254zM82 0v1061h471v-1061h-471z" />
<glyph unicode="&#xef;" horiz-adv-x="634" d="M-33 1135v311h291v-311h-291zM82 0v1061h471v-1061h-471zM381 1135v311h291v-311h-291z" />
<glyph unicode="&#xf0;" horiz-adv-x="1245" d="M82 293v362q0 90 20.5 149.5t55.5 94.5t84 49.5t104 14.5h254l-168 202l-203 -73l-92 161l176 58l-153 178l403 123l121 -154l158 60l96 -162l-135 -47l305 -383q35 -41 45 -92.5t10 -102.5v-424q0 -141 -71.5 -222t-219.5 -85q-68 -2 -134 -3t-134 -1q-59 0 -115.5 1 t-115.5 3q-141 4 -216 78t-75 215zM551 293h143v377h-143v-377z" />
<glyph unicode="&#xf1;" horiz-adv-x="1265" d="M82 0v768q0 131 71.5 212t219.5 81h520q80 0 135 -22.5t90 -62.5t50.5 -93.5t15.5 -114.5v-768h-469v768h-164v-768h-469zM293 1167v176q27 31 67.5 57.5t94.5 26.5q41 0 79.5 -12t76.5 -27.5t74 -27.5t69 -12q51 0 112.5 17t110.5 60v-184q-43 -55 -100.5 -78.5 t-120.5 -23.5q-43 0 -82 12t-77 27.5t-76 29t-79 13.5q-29 0 -54.5 -8.5t-47.5 -18.5q-25 -12 -47 -27z" />
<glyph unicode="&#xf2;" horiz-adv-x="1245" d="M82 291v463q0 45 10 98t42 98t89.5 76t149.5 35q100 4 155 4h197q27 0 62.5 -1t91.5 -3q45 -2 96 -12.5t92 -41t68.5 -88t27.5 -149.5v-463q0 -47 -10 -99t-42 -97t-89 -77t-150 -34q-100 -4 -155 -4h-197q-27 0 -62.5 1t-90.5 3q-47 2 -97.5 12.5t-91.5 41t-68.5 88 t-27.5 149.5zM205 1448h413l166 -293h-254zM551 293h143v475h-143v-475z" />
<glyph unicode="&#xf3;" horiz-adv-x="1245" d="M82 291v463q0 45 10 98t42 98t89.5 76t149.5 35q100 4 155 4h197q27 0 62.5 -1t91.5 -3q45 -2 96 -12.5t92 -41t68.5 -88t27.5 -149.5v-463q0 -47 -10 -99t-42 -97t-89 -77t-150 -34q-100 -4 -155 -4h-197q-27 0 -62.5 1t-90.5 3q-47 2 -97.5 12.5t-91.5 41t-68.5 88 t-27.5 149.5zM463 1155l166 293h413l-325 -293h-254zM551 293h143v475h-143v-475z" />
<glyph unicode="&#xf4;" horiz-adv-x="1245" d="M82 291v463q0 45 10 98t42 98t89.5 76t149.5 35q100 4 155 4h197q27 0 62.5 -1t91.5 -3q45 -2 96 -12.5t92 -41t68.5 -88t27.5 -149.5v-463q0 -47 -10 -99t-42 -97t-89 -77t-150 -34q-100 -4 -155 -4h-197q-27 0 -62.5 1t-90.5 3q-47 2 -97.5 12.5t-91.5 41t-68.5 88 t-27.5 149.5zM252 1155l162 293h413l166 -293h-254l-112 154l-121 -154h-254zM551 293h143v475h-143v-475z" />
<glyph unicode="&#xf5;" horiz-adv-x="1245" d="M82 291v463q0 45 10 98t42 98t89.5 76t149.5 35q100 4 155 4h197q27 0 62.5 -1t91.5 -3q45 -2 96 -12.5t92 -41t68.5 -88t27.5 -149.5v-463q0 -47 -10 -99t-42 -97t-89 -77t-150 -34q-100 -4 -155 -4h-197q-27 0 -62.5 1t-90.5 3q-47 2 -97.5 12.5t-91.5 41t-68.5 88 t-27.5 149.5zM291 1167v176q27 31 67.5 57.5t94.5 26.5q41 0 79.5 -12t76.5 -27.5t74 -27.5t69 -12q51 0 112.5 17t110.5 60v-184q-43 -55 -100.5 -78.5t-120.5 -23.5q-43 0 -82 12t-77 27.5t-76 29t-79 13.5q-29 0 -54.5 -8.5t-47.5 -18.5q-25 -12 -47 -27zM551 293h143 v475h-143v-475z" />
<glyph unicode="&#xf6;" horiz-adv-x="1245" d="M82 291v463q0 45 10 98t42 98t89.5 76t149.5 35q100 4 155 4h197q27 0 62.5 -1t91.5 -3q45 -2 96 -12.5t92 -41t68.5 -88t27.5 -149.5v-463q0 -47 -10 -99t-42 -97t-89 -77t-150 -34q-100 -4 -155 -4h-197q-27 0 -62.5 1t-90.5 3q-47 2 -97.5 12.5t-91.5 41t-68.5 88 t-27.5 149.5zM272 1135v311h291v-311h-291zM551 293h143v475h-143v-475zM688 1135v311h291v-311h-291z" />
<glyph unicode="&#xf7;" horiz-adv-x="1206" d="M63 358v340h1082v-340h-1082zM469 0v295h301v-295h-301zM469 764v295h301v-295h-301z" />
<glyph unicode="&#xf8;" horiz-adv-x="1245" d="M82 293v461q0 147 70.5 225t220.5 82q59 2 119.5 3t119.5 1h64q33 0 65 -2l74 174h227l-84 -184q111 -16 158 -98.5t47 -186.5v-461q0 -143 -72.5 -223t-218.5 -84l-127 -4q-63 -2 -127 -2h-47q-25 0 -45 2q-23 0 -47 2l-78 -186h-227l92 202q-49 10 -84 38t-57.5 66 t-32.5 84t-10 91zM551 293h143v475h-143v-475z" />
<glyph unicode="&#xf9;" horiz-adv-x="1265" d="M82 309v752h469v-768h164v768h469v-752q0 -135 -75 -220t-216 -89q-72 -2 -140.5 -3t-140.5 -1q-59 0 -119.5 1t-119.5 3q-154 4 -222.5 83t-68.5 226zM211 1448h413l166 -293h-254z" />
<glyph unicode="&#xfa;" horiz-adv-x="1265" d="M82 309v752h469v-768h164v768h469v-752q0 -135 -75 -220t-216 -89q-72 -2 -140.5 -3t-140.5 -1q-59 0 -119.5 1t-119.5 3q-154 4 -222.5 83t-68.5 226zM494 1155l166 293h413l-325 -293h-254z" />
<glyph unicode="&#xfb;" horiz-adv-x="1265" d="M82 309v752h469v-768h164v768h469v-752q0 -135 -75 -220t-216 -89q-72 -2 -140.5 -3t-140.5 -1q-59 0 -119.5 1t-119.5 3q-154 4 -222.5 83t-68.5 226zM266 1155l162 293h413l166 -293h-254l-112 154l-121 -154h-254z" />
<glyph unicode="&#xfc;" horiz-adv-x="1265" d="M82 309v752h469v-768h164v768h469v-752q0 -135 -75 -220t-216 -89q-72 -2 -140.5 -3t-140.5 -1q-59 0 -119.5 1t-119.5 3q-154 4 -222.5 83t-68.5 226zM282 1135v311h291v-311h-291zM698 1135v311h291v-311h-291z" />
<glyph unicode="&#xfd;" horiz-adv-x="1271" d="M4 1061h526l105 -651h31l106 651h496l-422 -1448h-524l141 387q-72 0 -112 28.5t-56 84.5zM514 1155l166 293h413l-325 -293h-254z" />
<glyph unicode="&#xfe;" horiz-adv-x="1263" d="M82 -387v1923h471v-475h338q147 0 219 -82t72 -225v-461q0 -154 -69 -223.5t-222 -69.5h-334v-387h-475zM547 293h166v475h-166v-475z" />
<glyph unicode="&#xff;" horiz-adv-x="1271" d="M4 1061h526l105 -651h31l106 651h496l-422 -1448h-524l141 387q-72 0 -112 28.5t-56 84.5zM299 1135v311h291v-311h-291zM714 1135v311h291v-311h-291z" />
<glyph unicode="&#x152;" horiz-adv-x="1785" d="M92 293v844q0 150 70.5 228.5t234.5 78.5h1329v-291h-378v-266h378v-293h-378v-301h378v-293h-1329q-168 0 -236.5 73.5t-68.5 219.5zM641 293h182v858h-182v-858z" />
<glyph unicode="&#x153;" horiz-adv-x="1701" d="M82 293v461q0 63 17.5 118.5t54 97.5t94 65.5t139.5 27.5q41 2 67.5 2h43.5q10 0 29.5 -1t35.5 -1h43q70 0 115 -12.5t72.5 -33t42 -46t24.5 -49.5q10 25 25.5 47t42 40.5t66.5 32t100 19.5q29 4 65.5 4h54.5q23 0 63 -1t64 -3q147 -6 226.5 -81t79.5 -212v-315h-576 v-140h524v-313h-493q-63 0 -105.5 12.5t-68 30.5t-40 42t-22.5 46q-10 -23 -24.5 -44t-41 -39.5t-66.5 -31t-103 -16.5q-12 0 -31.5 -1t-40 -2t-37 -1h-22.5q-16 0 -53 1t-60 3q-156 10 -230.5 81t-74.5 212zM522 264h144v531h-144v-531zM1059 623h158v172h-158v-172z" />
<glyph unicode="&#x178;" horiz-adv-x="1146" d="M-20 1446h462l125 -602h23l129 602h448l-317 -1065v-381h-553v381zM227 1536v295h291v-295h-291zM641 1536v295h291v-295h-291z" />
<glyph unicode="&#x2c6;" horiz-adv-x="917" d="M88 1153l162 293h414l165 -293h-254l-112 154l-121 -154h-254z" />
<glyph unicode="&#x2dc;" horiz-adv-x="917" d="M117 1171v177q27 31 67.5 57.5t94.5 26.5q41 0 79.5 -12.5t76.5 -28t74 -27.5t69 -12q51 0 112.5 17t110.5 61v-185q-43 -55 -100.5 -78.5t-120.5 -23.5q-43 0 -82 12t-77 27.5t-76 29t-79 13.5q-29 0 -54.5 -8.5t-47.5 -18.5q-25 -12 -47 -27z" />
<glyph unicode="&#x2000;" horiz-adv-x="962" />
<glyph unicode="&#x2001;" horiz-adv-x="1925" />
<glyph unicode="&#x2002;" horiz-adv-x="962" />
<glyph unicode="&#x2003;" horiz-adv-x="1925" />
<glyph unicode="&#x2004;" horiz-adv-x="641" />
<glyph unicode="&#x2005;" horiz-adv-x="481" />
<glyph unicode="&#x2006;" horiz-adv-x="320" />
<glyph unicode="&#x2007;" horiz-adv-x="320" />
<glyph unicode="&#x2008;" horiz-adv-x="240" />
<glyph unicode="&#x2009;" horiz-adv-x="385" />
<glyph unicode="&#x200a;" horiz-adv-x="106" />
<glyph unicode="&#x2010;" horiz-adv-x="591" d="M35 350v357h522v-357h-522z" />
<glyph unicode="&#x2011;" horiz-adv-x="591" d="M35 350v357h522v-357h-522z" />
<glyph unicode="&#x2012;" horiz-adv-x="591" d="M35 350v357h522v-357h-522z" />
<glyph unicode="&#x2013;" horiz-adv-x="1052" d="M35 350v357h983v-357h-983z" />
<glyph unicode="&#x2014;" horiz-adv-x="2076" d="M35 350v357h2007v-357h-2007z" />
<glyph unicode="&#x2018;" horiz-adv-x="722" d="M57 1446h412l152 -592h-261z" />
<glyph unicode="&#x2019;" horiz-adv-x="722" d="M102 854l154 592h410l-301 -592h-263z" />
<glyph unicode="&#x201a;" horiz-adv-x="722" d="M102 -205l154 592h410l-301 -592h-263z" />
<glyph unicode="&#x201c;" horiz-adv-x="1226" d="M57 1446h412l152 -592h-261zM561 1446h410l153 -592h-260z" />
<glyph unicode="&#x201d;" horiz-adv-x="1226" d="M102 854l154 592h410l-301 -592h-263zM606 854l152 592h411l-303 -592h-260z" />
<glyph unicode="&#x201e;" horiz-adv-x="1226" d="M102 -205l154 592h410l-301 -592h-263zM606 -205l152 592h411l-303 -592h-260z" />
<glyph unicode="&#x2022;" horiz-adv-x="829" d="M123 516q0 61 22.5 116.5t62.5 95.5t93 63.5t115 23.5q61 0 113.5 -23.5t92.5 -63.5t62.5 -95.5t22.5 -116.5t-22.5 -116.5t-62.5 -95.5t-92.5 -63.5t-113.5 -23.5t-114.5 23.5t-93.5 63.5t-62.5 95.5t-22.5 116.5z" />
<glyph unicode="&#x2026;" horiz-adv-x="1980" d="M127 0v434h440v-434h-440zM770 0v434h440v-434h-440zM1413 0v434h440v-434h-440z" />
<glyph unicode="&#x202f;" horiz-adv-x="385" />
<glyph unicode="&#x2039;" horiz-adv-x="632" d="M41 526l238 379h313l-176 -377l176 -376h-313z" />
<glyph unicode="&#x203a;" horiz-adv-x="622" d="M41 152l176 376l-176 377h313l238 -379l-238 -374h-313z" />
<glyph unicode="&#x205f;" horiz-adv-x="481" />
<glyph unicode="&#x20ac;" horiz-adv-x="1187" d="M53 473l60 150h98v104h-158l60 150h98v149q0 137 65.5 205.5t208.5 68.5h588v-262h-344v-161h342l-59 -150h-283v-104h342l-59 -150h-283v-211h344v-262h-588q-143 0 -208.5 70.5t-65.5 193.5v209h-158z" />
<glyph unicode="&#x2122;" horiz-adv-x="1603" d="M70 1278v170h553v-170h-140v-555h-274v555h-139zM700 723v725h283l86 -389h27l86 389h280v-725h-200v405h-21l-88 -405h-143l-88 405h-25v-405h-197z" />
<glyph unicode="&#x25fc;" horiz-adv-x="1064" d="M0 0v1065h1065v-1065h-1065z" />
<glyph unicode="&#xfb01;" horiz-adv-x="1390" d="M45 768v293h82v182q0 137 62.5 215t220.5 78h342v-289h-164v-186h721v-1061h-461v774h-260v-774h-461v768h-82zM848 1137v309h461v-309h-461z" />
<glyph unicode="&#xfb02;" horiz-adv-x="1406" d="M45 768v293h82v182q0 139 70.5 216t220.5 77h887v-1536h-461v1247h-256v-186h168v-293h-168v-768h-461v768h-82z" />
</font>
</defs>
</svg>
